<svg xmlns="http://www.w3.org/2000/svg" height="180" width="132.929"><path d="M122.632 110.639l-.206-.004-.09-.188c-.046-.104-.1-.168-.158-.19-.06-.021-.214-.035-.465-.04l-3.462-.067c-.323-.007-.518.007-.584.04-.067.031-.107.136-.12.311l-.03.31-.318-.007c.026-.266.045-.604.059-1.015.013-.41.015-.78.005-1.109a26.773 26.773 0 0 1-.004-1.303c.01-.4.027-.656.056-.767.224.038.418.066.584.085.162.022.358.04.588.058l-.005.28-.58.054c-.056.007-.099.081-.128.225a4.324 4.324 0 0 0-.052.687l-.012.38-.004.647 1.915.037.03-.751c.008-.365 0-.582-.022-.652-.022-.07-.093-.115-.215-.133l-.367-.05.006-.306c.331.017.616.028.857.033.24.004.527.005.86 0l-.005.307-.423.034c-.137.014-.219.054-.245.124-.026.069-.042.287-.05.654-.003.228-.002.477.005.749l2.132.041c.02-.232.032-.448.036-.647l.003-.12a7.39 7.39 0 0 0-.023-.76c-.02-.236-.046-.39-.078-.46l-.756-.208.007-.303c.257.029.48.05.665.064.189.014.412.026.67.036.009.12.006.4-.009.843a83.29 83.29 0 0 1-.059 1.448c-.016.322-.025.642-.026.957 0 .315.005.54.018.675m-1.304 5.279c.325.018.521.012.588-.018.067-.03.11-.132.13-.307l.04-.309.318.018c-.036.35-.06.652-.074.905a20.3 20.3 0 0 0-.028.915l-.318-.018-.005-.311c0-.176-.033-.283-.097-.32-.063-.037-.256-.065-.58-.083l-3.344-.187c-.323-.018-.518-.012-.586.018-.068.03-.111.132-.131.307l-.04.309-.318-.018c.033-.314.056-.585.068-.812.013-.227.02-.498.023-.814.133-.076.25-.15.351-.223.101-.074.345-.257.732-.552l3.045-2.28-2.909-.162c-.322-.018-.517-.012-.584.017-.068.03-.112.133-.132.307l-.04.309-.318-.018c.035-.35.06-.651.074-.904.014-.256.023-.561.027-.916l.318.018.005.311c.001.177.033.283.097.32.064.038.257.065.58.083l3.535.198c.217.012.413.02.589.023.175.004.283.002.322-.004l.036.056-.142.66-4.422 3.303zm.752 4.394c-.102.935-.446 1.656-1.03 2.161-.585.506-1.312.71-2.18.615-.866-.095-1.508-.459-1.924-1.092-.417-.633-.568-1.473-.454-2.518a5.56 5.56 0 0 1 .2-1.035c.08-.264.206-.563.375-.895l.123-.06.538.15c.175.046.382.094.624.144l-.034.306-.667-.034c-.187.123-.347.327-.48.614a3.196 3.196 0 0 0-.257.986c-.068.613.072 1.121.418 1.523.346.402.849.639 1.51.712.798.087 1.452-.038 1.96-.375.507-.337.797-.836.87-1.496v.004a2.69 2.69 0 0 0-.082-1l-.64-.07c-.324-.036-.52-.036-.589 0-.069.038-.121.17-.157.397l-.067.398-.316-.034c.065-.446.115-.83.15-1.155.036-.323.07-.711.105-1.163l.25.028.018.158c.008.09.047.147.116.17.068.025.274.056.615.094l.783.085c.234.81.308 1.601.223 2.378zm-2.305 7.774l-3.302-.57c-.32-.055-.516-.071-.585-.05-.07.023-.124.12-.164.291l-.076.302-.313-.054.232-1.208.255-1.616c.094-.545.26-.936.497-1.171.238-.236.551-.32.94-.253.403.07.721.312.954.727.122.217.201.45.237.698l1.98-.894c.348-.158.559-.26.634-.308a.385.385 0 0 0 .16-.208l.053-.149.313.055c-.065.288-.116.536-.152.745-.036.21-.072.46-.107.754a3.53 3.53 0 0 0-.345.12 74.94 74.94 0 0 0-.788.334l-1.874.808-.136-.082.02-.091a1.17 1.17 0 0 0-.169-.88 1.047 1.047 0 0 0-.725-.463c-.326-.056-.592-.013-.797.13-.206.143-.336.375-.392.696a2.186 2.186 0 0 0-.04.571l3.88.67c.318.054.512.071.583.05.07-.023.126-.12.166-.291l.075-.302.314.054c-.096.466-.174.87-.233 1.211-.058.34-.12.744-.186 1.216l-.313-.055.03-.31c.02-.174 0-.284-.058-.328-.058-.044-.247-.094-.568-.149m-.108 5.131l-.2-.047-.047-.203c-.024-.112-.063-.185-.116-.219-.053-.033-.201-.08-.445-.138l-3.368-.802c-.315-.075-.508-.104-.58-.087-.071.018-.133.11-.184.28l-.094.296-.31-.074c.082-.254.174-.58.274-.98.1-.398.18-.759.242-1.082.088-.46.18-.884.273-1.274.095-.39.167-.635.218-.737.21.085.395.154.552.207.155.056.342.116.563.182l-.065.272-.577-.07c-.057-.005-.115.058-.173.192a4.357 4.357 0 0 0-.198.66l-.092.37-.142.63 1.863.445.19-.728c.084-.355.123-.569.117-.642-.007-.073-.067-.132-.182-.175l-.348-.127.07-.298c.32.087.597.158.83.214.235.056.515.117.842.184l-.071.298-.421-.056c-.137-.017-.225.005-.266.068-.04.063-.102.272-.187.63a15.89 15.89 0 0 0-.155.732l2.075.494c.069-.223.126-.43.172-.624l.029-.117c.062-.265.109-.514.14-.748.03-.235.037-.39.021-.466l-.694-.365.07-.294c.246.083.458.151.637.204.18.054.396.113.647.178-.018.118-.08.392-.188.822-.108.43-.23.898-.366 1.402-.085.312-.161.622-.23.93-.067.308-.11.53-.126.664m-5.83 4.004c-.35.029-.564.06-.644.092-.08.032-.148.12-.205.262l-.105.25-.303-.097c.166-.462.304-.863.413-1.202.11-.337.232-.741.368-1.213l.303.098-.085.31c-.04.15-.017.247.068.29.085.042.276.051.572.027l3.271-.225.001-.003-2.335-1.965c-.294-.258-.502-.4-.623-.424-.121-.024-.217.056-.287.24l-.113.297-.303-.098c.122-.327.222-.61.3-.852.078-.24.164-.53.257-.87l.303.098-.047.222c-.03.126-.022.224.025.293.047.07.203.218.47.445l2.921 2.497c.127.112.258.223.393.335.135.112.238.193.308.242l-.093.288-.094.292a12.115 12.115 0 0 0-.907.057zm1.6 2.19c.697.308 1.138.704 1.323 1.187.185.484.121 1.074-.19 1.77-.292.653-.645 1.101-1.058 1.342-.414.241-.857.256-1.329.045l-2.637-1.178c-.295-.132-.48-.196-.554-.192-.074.004-.151.084-.232.24l-.148.274-.29-.13c.208-.428.383-.8.524-1.116.14-.314.3-.691.48-1.132l.29.13-.105.292c-.062.165-.07.276-.023.334.046.058.217.152.512.284l1.996.892c.581.26 1.022.346 1.325.259.302-.088.563-.378.784-.871.221-.496.263-.895.125-1.197-.138-.302-.49-.58-1.053-.832l-1.997-.892c-.295-.131-.48-.196-.553-.192-.074.004-.152.084-.233.24l-.148.274-.29-.13c.158-.314.288-.587.391-.819.105-.233.222-.515.352-.845l.29.13-.105.293c-.062.164-.07.276-.023.333.046.058.217.152.512.284zm-4.29 8.354l.852-1.388-2.118-.329-.003.004zm.415 1.373l-2.29-3.127a15.405 15.405 0 0 0-.304-.418 5.75 5.75 0 0 0-.242-.308l.151-.248.152-.248a12.941 12.941 0 0 0 .898.145l3.866.564c.348.05.563.07.645.061.081-.01.16-.063.236-.162l.133-.173.27.166c-.258.393-.477.735-.655 1.026-.177.289-.382.638-.615 1.047l-.27-.166.154-.282c.074-.137.075-.235.001-.296-.074-.06-.258-.11-.554-.153l-.668-.105-1.042 1.7.267.345c.228.315.398.499.511.55.113.05.224-.004.334-.164l.18-.263.27.166c-.195.29-.359.542-.491.758-.132.216-.284.478-.454.786l-.271-.166.097-.204c.057-.117.071-.214.043-.292-.03-.076-.147-.255-.352-.539m-5.703 6.569l-2.695-2.82-.572.546c-.245.234-.382.383-.412.448-.03.064 0 .15.086.26l.334.411-.219.21a20.313 20.313 0 0 0-.97-.875l1.834-1.721 1.802-1.754a15.35 15.35 0 0 0 .83 1.008l-.219.21-.395-.352c-.106-.092-.191-.125-.257-.098-.066.027-.22.157-.466.391l-.571.547 2.695 2.82c.223.233.371.361.443.383.073.021.184-.032.333-.16l.266-.222.22.23c-.378.339-.699.635-.964.889-.266.253-.575.56-.929.92l-.22-.23.234-.256c.135-.143.193-.252.175-.328-.018-.071-.14-.224-.363-.457m-5.745 4.435c.186.268.311.42.376.454.064.034.171.005.322-.087l.268-.157.181.261c-.298.188-.55.354-.76.498-.21.145-.456.325-.738.54l-.181-.262.242-.195c.138-.109.202-.2.193-.273-.01-.074-.107-.243-.29-.509l-1.908-2.754c-.184-.266-.309-.416-.374-.451-.065-.035-.173-.007-.323.084l-.268.158-.182-.261c.269-.167.496-.315.683-.445.188-.13.406-.29.657-.482.141.059.272.106.392.14.12.035.415.115.884.238l3.67 1.003-1.658-2.395c-.184-.265-.308-.416-.374-.45-.065-.036-.172-.007-.323.084l-.268.158-.18-.262c.297-.187.55-.353.758-.497.21-.146.457-.325.74-.54l.18.261-.242.196c-.138.109-.203.2-.193.273.01.073.107.243.291.508l2.015 2.911c.124.179.238.338.344.48.105.14.172.224.2.251l-.022.063-.608.294-5.322-1.461zm-2.943 1.803c.112-.47.017-1.023-.283-1.659-.354-.75-.762-1.263-1.225-1.538-.462-.274-.948-.292-1.458-.051-.507.239-.817.595-.928 1.068-.112.472-.017 1.027.283 1.663.352.748.76 1.259 1.224 1.532.463.273.948.29 1.456.05.51-.24.82-.595.931-1.065m-3.03 1.747c-.657-.22-1.168-.718-1.536-1.497-.393-.835-.46-1.597-.197-2.286.262-.69.825-1.239 1.69-1.646.817-.385 1.553-.467 2.208-.247.656.222 1.168.722 1.536 1.503.393.833.458 1.593.197 2.28-.261.688-.826 1.237-1.693 1.646-.814.384-1.549.466-2.205.247m-7.467 1.951c.09.31.161.492.212.546.05.054.162.062.334.022l.304-.065.09.306c-.343.083-.636.16-.879.232a21.09 21.09 0 0 0-.871.279l-.09-.306.292-.109c.165-.06.256-.124.27-.196.014-.071-.025-.263-.116-.576l-.94-3.216c-.09-.313-.161-.495-.212-.548-.05-.052-.161-.059-.333-.02l-.304.065-.09-.305c.363-.09.673-.172.934-.249.26-.076.57-.174.928-.295.086.12.163.221.231.302.069.082.237.27.506.566l2.096 2.328h.004l.521-3.094c.074-.42.118-.683.133-.788.015-.106.025-.22.03-.342.341-.084.634-.161.877-.232.246-.072.536-.165.872-.279l.089.306-.291.109c-.166.059-.256.125-.27.198-.014.073.025.264.115.574l.94 3.216c.09.31.16.492.212.546.05.054.162.061.333.022l.304-.065.09.305c-.461.119-.858.226-1.19.324-.33.096-.722.218-1.174.366l-.089-.305.291-.11c.166-.058.256-.124.27-.197.013-.073-.025-.264-.116-.574l-.92-3.149-.659 3.897c-.038.218-.07.414-.097.588-.026.173-.04.276-.04.308l-.131.038-.13.039a3.555 3.555 0 0 0-.21-.253 28.977 28.977 0 0 0-.387-.434l-2.671-2.976h-.003zm-5.958 1.074l-.55-3.304c-.053-.322-.102-.511-.145-.57-.044-.058-.153-.078-.328-.06l-.31.029-.053-.314 1.217-.179 1.61-.29c.546-.092.969-.064 1.27.083.3.146.484.415.548.805.067.403-.057.782-.372 1.139-.166.187-.36.339-.581.454l1.496 1.575c.263.276.43.442.5.497a.387.387 0 0 0 .249.082l.157.002.052.313c-.293.033-.545.067-.754.102-.21.035-.458.084-.747.148-.075-.106-.15-.2-.226-.287a68.744 68.744 0 0 0-.575-.633l-1.38-1.504.032-.155.093-.012a1.17 1.17 0 0 0 .774-.449 1.05 1.05 0 0 0 .2-.837c-.055-.326-.184-.563-.386-.71-.203-.148-.465-.194-.786-.14a2.182 2.182 0 0 0-.553.15l.646 3.882c.053.319.101.508.145.568.044.06.154.08.329.061l.31-.027.051.313a35.186 35.186 0 0 0-2.428.404l-.053-.314.303-.074c.171-.039.269-.093.291-.162.023-.07.007-.265-.046-.586m-4.919 1.53l-.018-.204.177-.11c.098-.058.155-.117.17-.178.016-.061.012-.217-.01-.467l-.31-3.448c-.03-.322-.064-.514-.103-.577-.04-.063-.147-.091-.323-.086l-.311.006-.029-.317c.267-.003.606-.021 1.016-.052.41-.032.777-.07 1.103-.115.464-.063.896-.112 1.295-.146.399-.035.655-.044.768-.029-.013.227-.02.424-.02.59a9.38 9.38 0 0 0 .006.591l-.278.025-.118-.57c-.013-.055-.091-.09-.236-.102a4.263 4.263 0 0 0-.69.023l-.378.03-.645.066.172 1.908.75-.052c.364-.033.58-.064.646-.094.068-.029.104-.105.108-.227l.01-.371.305-.027c.02.33.04.615.061.855.022.239.053.524.093.855l-.305.028-.08-.417c-.028-.135-.078-.212-.15-.23-.071-.019-.29-.01-.656.022-.226.02-.474.05-.743.086l.191 2.125a9.9 9.9 0 0 0 .647-.035l.12-.011c.27-.024.521-.06.753-.105.232-.046.382-.088.448-.128l.125-.774.301-.027a18.227 18.227 0 0 0 .046 1.338c-.117.022-.397.05-.839.084a80.1 80.1 0 0 1-1.445.099c-.323.019-.64.045-.955.078a7.796 7.796 0 0 0-.669.091m-4.65.171l-.007-.205.184-.099c.101-.055.161-.113.18-.173.019-.06.025-.214.017-.462l-.109-3.46c-.01-.324-.033-.518-.068-.582-.036-.065-.142-.1-.318-.105l-.31-.013-.011-.318c.476 0 .887-.004 1.233-.016.344-.01.753-.031 1.228-.061l.01.317-.31.033c-.175.016-.279.057-.31.123-.032.065-.043.26-.032.587l.122 3.898c.23.008.446.01.648.003l.12-.004c.271-.008.524-.029.758-.06.235-.032.386-.068.455-.106l.168-.824.302-.01a19.168 19.168 0 0 0-.03 1.374c-.273.03-.63.053-1.074.07-.443.016-.848.022-1.216.018-.295-.004-.6.001-.915.015a6.811 6.811 0 0 0-.715.06m-.528-.686l-.17.37a4.04 4.04 0 0 1-.889.321c-.28.063-.593.09-.936.084-1.008-.017-1.787-.284-2.338-.8-.55-.517-.818-1.232-.802-2.144.015-.835.322-1.498.922-1.989.599-.49 1.39-.728 2.372-.71.385.006.715.041.991.102.252.057.533.153.844.29l.071.119-.102.552c-.03.178-.058.39-.085.639l-.307-.006-.026-.667c-.121-.173-.31-.314-.565-.421a2.233 2.233 0 0 0-.84-.17c-.612-.01-1.109.173-1.49.551-.381.379-.578.886-.589 1.522-.014.83.175 1.471.57 1.926.392.454.961.688 1.705.7.272.006.508-.017.709-.066.2-.05.492-.155.872-.318zm-13.995-.117l.021-.204.196-.073c.108-.038.175-.085.202-.142.027-.057.054-.21.08-.46l.37-3.442c.034-.321.038-.517.012-.586-.027-.069-.127-.118-.3-.147l-.306-.056.033-.316c.263.049.598.098 1.006.147.409.049.777.083 1.105.103.467.029.9.065 1.298.11.399.044.652.085.76.122-.058.22-.103.412-.136.574-.036.16-.072.354-.11.582l-.277-.03-.004-.582c-.001-.057-.072-.107-.212-.147a4.28 4.28 0 0 0-.68-.112l-.378-.045-.645-.061-.204 1.904.746.096c.363.039.58.05.652.035.072-.016.122-.083.15-.202l.082-.362.304.033c-.045.327-.08.61-.107.85-.025.239-.05.525-.076.858l-.304-.033.002-.425c0-.138-.034-.223-.101-.254-.067-.032-.283-.068-.648-.107a16.069 16.069 0 0 0-.746-.06l-.227 2.12c.23.04.443.07.64.092l.12.013c.27.03.523.044.76.045.236 0 .391-.012.464-.038l.274-.735.301.032a21.7 21.7 0 0 0-.121.658c-.03.186-.062.408-.095.664-.12-.002-.399-.03-.84-.082-.44-.052-.918-.114-1.436-.185-.32-.045-.637-.082-.951-.11a7.708 7.708 0 0 0-.675-.041m-3.375-1.574l.637-3.849-.78-.129c-.335-.055-.536-.075-.606-.06-.07.014-.121.09-.157.225l-.128.513-.299-.05a19.947 19.947 0 0 0 .117-1.3l2.478.433 2.484.388a15.733 15.733 0 0 0-.308 1.27l-.299-.05.045-.528c.009-.14-.016-.227-.077-.263-.06-.037-.258-.083-.592-.138l-.78-.129-.637 3.849c-.053.318-.066.513-.04.584.026.071.135.128.328.17l.336.08-.052.313a43.909 43.909 0 0 0-1.289-.236c-.362-.06-.793-.124-1.293-.19l.052-.315.344.034c.196.022.318.002.367-.058.046-.057.096-.246.149-.564m-3.856-.774l.724-3.27c.07-.316.096-.51.077-.581-.018-.072-.113-.132-.282-.18l-.298-.09.069-.31c.46.118.86.214 1.2.29.335.073.736.154 1.204.242l-.069.31-.307-.044c-.174-.028-.285-.013-.332.044-.047.057-.105.243-.175.559l-.724 3.271c-.07.315-.095.51-.077.58.019.072.113.132.282.18l.298.09-.069.31c-.46-.118-.86-.214-1.199-.289a38.56 38.56 0 0 0-1.205-.243l.069-.31.308.044c.174.028.284.014.331-.046.047-.055.106-.241.175-.557m-1.002-3.321l.126-.63a.983.983 0 0 0-.328-.435 1.567 1.567 0 0 0-.567-.29c-.324-.09-.603-.084-.836.02a.822.822 0 0 0-.465.56.643.643 0 0 0 .12.606c.14.18.431.397.874.654.55.32.91.616 1.083.89.17.271.2.6.092.985-.163.575-.493.967-.991 1.177-.499.21-1.109.213-1.83.01a3.622 3.622 0 0 1-1.431-.796 7.16 7.16 0 0 0 .285-.625c.069-.179.139-.397.209-.654l.295.083-.137.683c.058.205.187.393.388.567.2.174.434.298.7.373.353.1.658.092.914-.026.256-.117.427-.325.512-.627.065-.23.037-.432-.083-.603-.12-.168-.371-.363-.754-.584-.6-.35-.995-.665-1.187-.948-.192-.28-.235-.608-.13-.983.152-.535.447-.904.885-1.106.44-.203.97-.216 1.595-.04.301.086.552.178.752.278.176.09.371.212.585.367l.03.137c-.09.176-.162.332-.216.467a6.264 6.264 0 0 0-.195.574zm-8.663.253l1.203-3.127c.117-.304.171-.492.163-.565-.008-.072-.092-.144-.252-.217l-.281-.133.114-.297 1.139.463 1.535.566c.516.198.867.437 1.052.716.185.279.206.603.064.972-.146.381-.446.645-.899.792-.237.078-.481.11-.73.097l.49 2.117c.087.37.146.598.178.68.032.084.09.15.173.198l.135.082-.114.296a14.78 14.78 0 0 0-.702-.295 14.48 14.48 0 0 0-.718-.251 3.509 3.509 0 0 0-.05-.362c-.022-.112-.08-.391-.174-.838l-.427-1.996.107-.117.086.037c.313.121.612.123.895.006.283-.117.482-.324.596-.62.119-.31.128-.579.028-.808-.1-.23-.302-.403-.606-.52a2.203 2.203 0 0 0-.553-.15l-1.413 3.673c-.116.302-.17.49-.163.563.008.073.092.146.253.219l.28.133-.113.297c-.439-.185-.82-.34-1.143-.464a38.066 38.066 0 0 0-1.155-.42l.114-.297.298.09c.167.053.278.056.333.008.055-.048.14-.224.257-.528m-5.067-1.346l.094-.183.208.003c.114.004.194-.016.24-.06.046-.043.126-.176.24-.4l1.584-3.079c.148-.287.222-.468.222-.542 0-.074-.075-.155-.227-.245l-.265-.163.146-.282c.227.14.522.306.885.499.363.192.695.357.994.493.425.196.816.386 1.172.57.355.185.576.314.663.388a11.73 11.73 0 0 0-.643.99l-.25-.128.207-.544c.019-.054-.03-.125-.145-.214a4.35 4.35 0 0 0-.595-.35l-.336-.177-.579-.29-.876 1.704.662.358c.324.167.522.256.595.267.072.012.144-.033.213-.134l.206-.308.273.14a24.668 24.668 0 0 0-.786 1.527l-.272-.14.155-.395c.049-.13.048-.22-.003-.274-.05-.054-.24-.165-.566-.333a15.606 15.606 0 0 0-.674-.325l-.976 1.897c.2.12.389.225.566.316l.107.055c.241.125.472.23.692.315.22.086.37.13.447.132l.52-.587.269.138c-.14.22-.256.41-.35.57a19.85 19.85 0 0 0-.327.586c-.11-.045-.362-.171-.754-.379a81.31 81.31 0 0 1-1.274-.69 19.98 19.98 0 0 0-.848-.445 7.93 7.93 0 0 0-.614-.28m-2.338-6.792c.073-.342.105-.556.097-.642-.009-.086-.073-.176-.192-.272l-.21-.173.18-.261c.396.291.74.538 1.033.74.292.201.644.435 1.057.701l-.181.262-.274-.17c-.132-.082-.23-.088-.296-.018-.065.07-.129.25-.19.54l-.724 3.198.002.001 2.553-1.672c.332-.207.527-.366.585-.475.058-.11.01-.224-.147-.344l-.252-.193.18-.262c.278.211.521.388.73.532.208.144.461.31.76.496l-.181.262-.199-.109c-.112-.065-.208-.085-.288-.06-.08.025-.267.132-.561.322l-3.231 2.08c-.144.09-.288.184-.434.281a5.532 5.532 0 0 0-.32.226l-.25-.172-.252-.174a12.072 12.072 0 0 0 .206-.885zm-4.193.783l2.209-2.519c.213-.243.328-.4.347-.472.018-.072-.036-.17-.161-.293l-.218-.222.21-.239c.347.325.65.602.911.83.259.227.572.491.94.793l-.21.24-.248-.188c-.14-.108-.243-.148-.312-.12-.069.027-.21.162-.422.405l-2.21 2.519c-.212.242-.328.4-.346.471-.018.072.035.17.16.293l.218.222-.21.24a39.116 39.116 0 0 0-.911-.83 36.638 36.638 0 0 0-.94-.794l.21-.239.249.187c.139.108.243.148.312.12.068-.027.209-.161.422-.404m-4.2-4.39c-.243.217-.378.36-.404.428-.026.068.015.17.124.31l.189.247-.238.21a20.784 20.784 0 0 0-.585-.693 21.09 21.09 0 0 0-.625-.669l.238-.211.223.217c.125.124.222.177.294.158.072-.018.229-.135.47-.35l2.505-2.224c.242-.214.376-.356.403-.425.027-.069-.014-.173-.123-.31l-.189-.248.238-.212c.198.247.372.455.524.625.15.17.336.368.557.593a3.639 3.639 0 0 0-.092.407c-.02.123-.064.425-.13.906l-.554 3.764 2.178-1.934c.241-.215.376-.356.402-.425.027-.069-.013-.172-.123-.311l-.188-.247.238-.211c.222.273.417.504.585.694.17.19.378.414.625.668l-.238.211-.224-.216c-.124-.124-.222-.177-.294-.159-.071.019-.228.135-.47.35l-2.647 2.35a16.31 16.31 0 0 0-.434.4 2.998 2.998 0 0 0-.226.229l-.065-.015-.365-.568.81-5.46zm-.45-2.362c-.643.411-1.217.56-1.721.448-.506-.113-.962-.491-1.37-1.135-.385-.605-.563-1.146-.536-1.624.027-.478.259-.856.695-1.133l2.439-1.548c.273-.173.428-.292.466-.355.037-.064.013-.173-.072-.327l-.147-.274.268-.17c.242.409.456.76.642 1.053.184.29.41.632.678 1.025l-.268.17-.186-.25c-.103-.142-.191-.21-.265-.203-.074.007-.247.097-.52.27l-1.846 1.173c-.537.34-.852.661-.946.961-.095.3.003.678.293 1.135.291.458.6.713.929.765.328.051.753-.089 1.275-.42l1.846-1.172c.273-.173.428-.291.466-.355.037-.064.013-.173-.072-.327l-.147-.274.269-.17c.175.304.33.564.466.778.138.216.308.47.51.76l-.268.17-.186-.249c-.103-.143-.191-.21-.265-.204-.074.007-.247.097-.52.27zm-5.124-10.508l.772 1.946-.916.047-.772-1.946zm-2.895-4.842a.6.6 0 0 1-.057.472.598.598 0 0 1-.377.29.598.598 0 0 1-.472-.057.6.6 0 0 1-.29-.377.6.6 0 0 1 .057-.472.6.6 0 0 1 .377-.29.6.6 0 0 1 .472.057.6.6 0 0 1 .29.377m2.326-2.422l.613-.191a.98.98 0 0 0 .225-.497 1.572 1.572 0 0 0-.017-.636c-.074-.328-.213-.57-.417-.724a.82.82 0 0 0-.714-.14.644.644 0 0 0-.475.394c-.09.208-.142.569-.156 1.08-.018.636-.106 1.095-.264 1.377-.157.279-.43.463-.821.552-.583.132-1.085.03-1.507-.308-.423-.337-.717-.872-.883-1.603a3.626 3.626 0 0 1 .013-1.637c.267-.007.495-.024.686-.048a6.71 6.71 0 0 0 .674-.13l.068.3-.665.206c-.152.148-.256.352-.312.611-.057.26-.054.524.007.794.081.358.235.621.46.79.225.17.49.219.795.15.234-.053.398-.174.49-.362.09-.185.142-.499.153-.941.02-.694.108-1.193.265-1.496.154-.302.42-.497.801-.583.542-.123 1.007-.04 1.395.248.387.288.653.749.796 1.381.07.306.108.57.117.793.005.198-.01.428-.042.69l-.107.091a5.92 5.92 0 0 0-.513.033c-.168.02-.367.055-.597.104zm-3.711-3.657a.6.6 0 0 1-.097.466.6.6 0 0 1-.4.257.6.6 0 0 1-.466-.097.6.6 0 0 1-.257-.4.599.599 0 0 1 .097-.465.598.598 0 0 1 .4-.258.601.601 0 0 1 .465.097c.14.097.226.23.258.4m-.97-5.358l3.316-.476c.323-.046.513-.091.572-.133.06-.043.082-.152.067-.327l-.02-.31.314-.046.151 1.22.256 1.617c.078.547.041.97-.112 1.267-.153.298-.425.475-.817.53-.404.059-.781-.074-1.13-.397a2 2 0 0 1-.441-.59l-1.609 1.46c-.281.257-.45.42-.507.488a.384.384 0 0 0-.088.248l-.005.157-.314.045a14.597 14.597 0 0 0-.086-.756c-.03-.21-.074-.46-.13-.75a3.42 3.42 0 0 0 .29-.22c.088-.074.304-.26.647-.56l1.534-1.348.154.037.01.093c.047.332.191.594.431.784.24.19.518.262.832.217.328-.047.568-.17.72-.37.15-.199.203-.46.157-.782a2.188 2.188 0 0 0-.138-.556l-3.896.56c-.32.045-.51.09-.57.132-.061.043-.084.152-.07.327l.022.31-.315.046a38.639 38.639 0 0 0-.152-1.224c-.049-.34-.115-.745-.198-1.213l.315-.046.067.304c.035.173.087.271.156.295.069.024.264.013.587-.033m-.046-1.67a.598.598 0 0 1-.132.457.598.598 0 0 1-.418.226.597.597 0 0 1-.457-.132.598.598 0 0 1-.226-.418.599.599 0 0 1 .132-.457.598.598 0 0 1 .419-.226.597.597 0 0 1 .456.132.6.6 0 0 1 .226.418m-.614-5.835c-.326.023-.52.054-.581.092-.062.038-.092.145-.09.321l-.001.312-.317.022c-.01-.351-.024-.654-.042-.906a21.528 21.528 0 0 0-.089-.911l.317-.023.046.307c.023.175.068.277.137.306.068.028.263.031.585.008l3.342-.24c.322-.023.515-.054.578-.092.064-.038.094-.145.092-.321v-.311l.318-.023c.007.316.019.587.035.814.016.226.043.497.081.81-.122.092-.23.18-.32.266-.091.086-.31.299-.656.64l-2.73 2.649 2.905-.209c.322-.023.515-.053.578-.091.063-.039.094-.146.092-.322v-.31l.318-.024c.01.352.023.654.041.907.019.255.048.559.09.911l-.318.023-.045-.308c-.023-.175-.069-.276-.137-.305-.068-.029-.263-.032-.586-.008l-3.53.253c-.217.015-.413.033-.588.051-.175.02-.281.034-.319.045l-.043-.051.057-.673 3.967-3.838zm.04-2.083a.598.598 0 0 1-.162.447.597.597 0 0 1-.432.199.6.6 0 0 1-.448-.163.599.599 0 0 1-.198-.432.6.6 0 0 1 .162-.447.599.599 0 0 1 .433-.198.6.6 0 0 1 .447.162c.125.115.19.26.198.432m-.521-.743l-.375-.156a4.08 4.08 0 0 1-.353-.878 3.982 3.982 0 0 1-.117-.933c-.018-1.008.221-1.796.718-2.364.497-.569 1.202-.861 2.114-.877.835-.015 1.508.269 2.02.85.511.582.776 1.364.793 2.346.007.386-.015.717-.068.994a4.54 4.54 0 0 1-.26.854l-.115.076-.556-.083a13.317 13.317 0 0 0-.64-.063l-.006-.306.666-.05c.168-.127.302-.32.4-.58.1-.258.146-.54.141-.845-.01-.612-.212-1.102-.604-1.47-.391-.367-.905-.546-1.541-.534-.83.014-1.464.226-1.904.635-.44.41-.654.987-.64 1.73.004.272.034.507.09.706.057.2.173.486.35.86zM98.295 28.84l5.273-8.175c.509-.788.774-1.29.796-1.503.022-.214-.174-.472-.587-.774l-.72-.544.5-.776c1.137.786 2.127 1.452 2.973 1.997.838.541 1.85 1.167 3.036 1.878l-.5.776-.794-.432c-.446-.251-.761-.323-.947-.215-.185.108-.533.556-1.041 1.345l-5.273 8.175c-.509.788-.774 1.29-.795 1.503-.022.213.173.472.586.774l.72.544-.5.776a111.548 111.548 0 0 0-2.972-1.997 112.794 112.794 0 0 0-3.036-1.878l.5-.776.794.431c.445.252.761.322.95.21.183-.104.529-.55 1.037-1.339m-15.951-5.018c.624.29 1.295.555 2.014.797 2.134.694 3.878.659 5.231-.105 1.353-.763 2.404-2.306 3.151-4.628.671-2.04.63-3.71-.122-5.013-.753-1.302-2.267-2.324-4.544-3.064a14.81 14.81 0 0 0-1.667-.483zm-2.676-2.22l3.11-9.562c.29-.892.418-1.444.384-1.657-.033-.212-.288-.411-.764-.597l-.836-.343.286-.878c.619.256 1.39.543 2.313.859.923.316 1.74.57 2.452.762.4.106 1.032.294 1.9.564.867.27 1.732.546 2.596.827 2.356.766 3.963 1.908 4.823 3.427.86 1.519.94 3.353.242 5.501-.836 2.57-2.343 4.34-4.52 5.308-2.178.97-4.702.987-7.572.054a114.15 114.15 0 0 1-1.906-.638 22.8 22.8 0 0 1-1.274-.468 18.38 18.38 0 0 0-1.61-.565 14.657 14.657 0 0 0-1.602-.408l.185-.567.608-.087c.344-.038.57-.13.681-.276.111-.145.279-.564.504-1.257m-17.306-1.514l.292-9.724c.028-.945-.004-1.513-.096-1.704-.092-.19-.392-.308-.901-.353l-.899-.095.028-.923 3.565.175 4.751.075c1.606.048 2.796.365 3.57.952.775.586 1.146 1.454 1.111 2.601-.035 1.186-.603 2.198-1.701 3.036a5.815 5.815 0 0 1-1.91.967l3.376 5.328c.596.935.977 1.5 1.143 1.696.167.197.389.321.665.375l.448.092-.028.923c-.855-.07-1.59-.115-2.206-.134a43.077 43.077 0 0 0-2.21.001 10.1 10.1 0 0 0-.484-.943c-.168-.287-.595-.996-1.282-2.128l-3.088-5.06.181-.423.27.02c.976.029 1.795-.253 2.459-.845.663-.592 1.009-1.35 1.037-2.272.028-.96-.205-1.707-.7-2.24-.494-.533-1.214-.814-2.16-.842a6.374 6.374 0 0 0-1.659.119l-.342 11.423c-.029.937.004 1.504.095 1.698.092.194.392.314.902.36l.898.094-.027.922c-1.38-.086-2.572-.144-3.577-.175-.998-.03-2.188-.043-3.57-.039l.028-.923.902-.04c.511-.015.818-.115.921-.3.103-.184.17-.75.198-1.694m-15.124 5.61l-.123-.584.474-.376c.264-.201.408-.392.432-.574.023-.18-.04-.628-.19-1.34l-2.065-9.84c-.193-.919-.357-1.461-.492-1.629-.135-.167-.455-.213-.96-.138l-.896.12-.19-.904c.769-.1 1.74-.265 2.91-.496a54.188 54.188 0 0 0 3.142-.706 80.266 80.266 0 0 1 3.685-.86c1.14-.235 1.875-.349 2.207-.342.038.66.085 1.229.14 1.708.045.474.118 1.041.219 1.703l-.794.166-.532-1.602c-.056-.157-.295-.23-.718-.218-.423.012-1.083.113-1.98.3l-1.081.216-1.836.409 1.143 5.443 2.147-.404c1.036-.218 1.645-.38 1.83-.488.184-.108.263-.34.234-.694l-.098-1.072.87-.183c.168.947.324 1.762.467 2.445.144.683.33 1.495.558 2.437l-.87.182-.374-1.175c-.126-.38-.295-.584-.508-.612-.213-.029-.841.067-1.884.286-.647.136-1.352.303-2.115.501l1.272 6.06c.67-.094 1.288-.2 1.854-.32l.341-.071a21.316 21.316 0 0 0 2.138-.558c.654-.21 1.07-.384 1.248-.521l.098-2.276.86-.18c.088.749.172 1.39.254 1.926.083.542.195 1.182.334 1.92-.332.1-1.129.275-2.392.525s-2.64.508-4.134.776c-.924.163-1.833.346-2.726.549-.893.203-1.527.366-1.899.49m-3.362-1.399l.102 1.175c-.572.833-1.168 1.529-1.786 2.088-.62.559-1.367 1.077-2.244 1.554-2.571 1.4-4.922 1.842-7.053 1.326-2.13-.515-3.829-1.936-5.096-4.264-1.159-2.13-1.333-4.243-.523-6.342.81-2.1 2.468-3.83 4.974-5.194.982-.535 1.865-.921 2.65-1.16.718-.22 1.567-.38 2.548-.477l.35.194.532 1.544c.181.49.415 1.069.7 1.734l-.781.425-1.025-1.647c-.553-.263-1.23-.348-2.029-.255a6.492 6.492 0 0 0-2.364.774c-1.562.85-2.553 2.026-2.974 3.529-.42 1.502-.19 3.064.693 4.686 1.152 2.116 2.55 3.466 4.196 4.049 1.645.583 3.416.358 5.314-.675.692-.377 1.256-.771 1.694-1.183.437-.412 1.02-1.097 1.746-2.053zm5.46 5.484s-.726 3.497-.241 8.083c.482 4.583 3.255 22.555-5.188 28.83 0 0 .241 31 0 32.69-.241 1.688-5.67 7.84-5.91 11.337-.242 3.498 1.568 11.098.24 16.646-1.328 5.549-2.412 14.837-.36 18.095-4.827-2.052-9.893-19.905-10.254-45.477-.363-25.572 2.413-51.868 5.427-58.744 4.222-6.275 10.134-10.858 16.286-11.46m6.754-1.086l-2.653.723s0 26.779.482 30.64c-2.17 3.497-4.342 6.877-4.705 8.083-.36 1.206-.36 32.69-.965 34.256-.604 1.57-5.065 5.67-5.79 7.24-.723 1.566-1.688 28.466.12 39.684 1.81 1.328 4.947 2.775 8.446 2.534 0 0-1.328-42.582-.242-44.631 1.567-1.932 3.738-6.515 3.497-11.822-.241-5.307-.602-14.235-.241-16.043-.483-1.447-1.93-5.55 0-11.218 1.93-5.67 2.051-8.565 2.534-10.617.482-2.051.241-3.74-.363-5.548-.602-1.81 2.173-16.768-.12-23.281m4.825-.483l2.17-.12s1.329 7.479 1.329 12.666v112.786s-2.654-.724-4.584-.605c-1.93.122-3.98.122-3.98.122s-.242-15.923-.483-21.471c-.242-5.55.12-19.06 2.17-26.78 2.052-7.72 1.448-19.783 1.448-23.763 0-3.981.482-14.717 2.293-21.471-.241-5.67-.363-31.364-.363-31.364m9.77-.602s-2.17-.726-2.531-.122c0 0 .48 10.736-.122 13.994-.602 3.255.241 10.977.241 14.476 0 3.496 1.57 90.95 1.93 96.981.965 0 6.757.483 7.48-1.084-.243-2.051-.725-6.033-.604-9.41.122-3.377 1.328-22.073.846-26.296-.485-4.222-.122-7.841-1.932-10.736-1.808-2.894-2.532-13.028-2.05-17.129.483-4.1 1.448-16.647 0-21.832-1.569-3.258-3.257-9.169-3.499-13.633-.24-4.461.846-22.556.242-25.209m5.187.602l2.654.363c-.483 1.084-1.689 5.066-.843 7.84.843 2.774 1.447 8.322.601 10.374-.845 2.051-.119 11.941.605 13.752.724 1.808 2.773 5.066 4.583 6.513 0 0-.604 5.066.12 9.047.723 3.982 2.897 20.99.845 24.006 1.81 1.566 6.876 4.341 6.635 16.405-.241 12.062.12 19.3.482 20.626.36 1.328-.723 2.412-.604 4.1.122 1.69 2.293 6.999-.602 8.324-2.895 1.328-5.911 1.206-5.911 1.206s-2.171-9.77-1.93-17.49c.241-7.721.241-25.21.241-25.21s-4.463-6.514-4.103-16.407c.363-9.89 1.45-22.314-.843-26.778-2.293-4.464-3.618-22.195-1.93-36.671m22.919 11.7c6.876 18.577 5.911 59.47 5.911 62.607 0 3.136-1.81 25.813-1.93 27.502-.121 1.688-3.257 11.098-5.428 13.389-1.206-4.342-1.087-10.373-.483-23.038.605-12.666-5.307-18.818-7.358-20.146-.483-2.532-1.087-8.082-.12-22.195.965-14.113-6.032-17.853-6.032-17.853-1.085-5.066-.603-30.88-.603-30.88s12.425 2.532 16.043 10.615m27.865 87.213c-1.81 10.977-5.548 33.053-23.401 41.737-17.853 8.687-67.43 11.34-84.92-7.96C.842 141.602 5.065 92.024 4.701 83.338c-.36-8.684 2.293-45.838 6.516-52.955 4.22-7.117 14.232-25.935 54.885-25.572 23.764 0 39.806 7.719 39.806 7.719s10.977 12.424 13.148 14.598c1.689 3.979 8.324 22.797 8.324 43.062 0 20.265 1.087 45.96-.724 56.936m-1.206-94.21c-1.447-6.634-1.206-16.405-24.73-26.536C95.416 5.052 83.957 2.759 71.773.71c-12.183-2.052-22.316.723-30.518 3.496-8.204 2.776-14.385 5.49-14.385 5.49-1.447 0-3.166.272-3.8.815-.633.541-16.736 9.047-19.45 30.849C.903 63.164-.002 78.272-.002 78.272s1.357 11.67 1.357 19.722c0 8.052.271 44.603 8.504 56.546 8.234 11.942 14.747 18.366 31.574 22.436 3.619.815 4.886.632 10.043 1.719 5.157 1.084 18.094 4.522 54.915-7.328 4.613-2.262 13.752-9.41 18.455-16.284 1.63-4.706 6.274-30.491 6.756-45.81.483-15.319 1.326-34.86 1.326-37.755-.602-2.776-6.03-31.966-7.478-38.601" fill="#235696"/></svg>