<svg xmlns="http://www.w3.org/2000/svg" viewBox="0 0 244.21 65.41"><g style="fill:#e73137;"><path d="M17.52.5a25.4,25.4,0,0,0-3.27,0L10.47.68c-1.33,0-2.72,0-4.05,0C4.67.73,3,.63,1.26.59L.93.54C.1.5,0,.91,0,1.33v.23c0,.55,0,.87,1,.83h.37c1.38,0,1.84.41,2,1.79a21.44,21.44,0,0,1,.19,3.46c0,1.75,0,3.55.09,5.39v11.2a36.42,36.42,0,0,1-.28,6c-.27,1.1-1.51,1.1-1.79,1.1H1.21c-.65.1-.6.51-.6.79v.18c0,.37,0,.83.83.83l.42,0c.82,0,1.65,0,2.48-.1,1.75,0,3.55.05,5.3.1l.33,0c.82.05.87-.5.82-.83v-.23c0-.78-.36-.78-.78-.74l-.32,0A2.67,2.67,0,0,1,8,30.91c-.64-.55-.64-2.21-.69-4.1v-7c1.48.05,3,.1,4.43.1s3.08,0,4.65,0l.28,0a.77.77,0,0,0,.83-.18l0-.19a5.54,5.54,0,0,1,.65-1.29l0-.18a2,2,0,0,0,.23-.83c0-.69-.5-.51-.92-.37l-.32,0a38,38,0,0,1-8,.42l-2-.14v-14H9.83c1.29,0,2.53,0,3.78.14.41,0,.87,0,1.29,0s1-.09,1.33.14.6,1.66.83,3l.05.41c.09.33.18.51.83.51h.32A.59.59,0,0,0,19,6.81V6.49A13.67,13.67,0,0,1,19,5.06c0-.6.09-1.15.14-1.71l0-.37A2.92,2.92,0,0,0,19,1C18.63.54,17.57.5,17.52.5Z"/><path d="M73.59,4.59a2.25,2.25,0,0,0,1.25.34,2.6,2.6,0,0,0,2.42-2.42A2.54,2.54,0,0,0,74.8,0a2.37,2.37,0,0,0-2.37,2.47A2.32,2.32,0,0,0,73.59,4.59Z"/><path d="M79.48,31.24c.09-.58-.44-.58-.63-.53l-.63-.05a2.25,2.25,0,0,1-1.36-.29c-.62-.58-.48-2.56-.53-4.6l.06-7.64c.09-1.93.14-3.82.24-5.75l.15-1.75c-.2-.58-.49-.43-.73-.34l-.39.15a19.58,19.58,0,0,1-5,1.3,12.24,12.24,0,0,0-5.41-9.18A14.5,14.5,0,0,0,57.55.25c-1.1,0-2.21,0-3.31,0l-1.06,0c-2.4.14-4.84.19-7.24.19-2.12,0-4.22,0-6.34-.14L36.72.14C36.17.09,35.62,0,35,0c-.33,0-.6.14-.6.88,0,.18,0,.27.09.36a1.34,1.34,0,0,0,.83.33,2.82,2.82,0,0,1,2,1.19,4.17,4.17,0,0,1,.46,2.45c0,1.52,0,3,0,4.61L30.36,10V3c-.09-.79-.83-.79-1-.83a1.43,1.43,0,0,0-.56-.1c-.78,0-.64.56-.59.79,0,.6.13,1.2.18,1.75s.05,1.06.09,1.56c.05,1.25.09,2.54.05,3.78H21.93c-.05-1.24-.14-2.53-.14-3.82a10.37,10.37,0,0,1,.42-2.72A1.5,1.5,0,0,1,23.26,2.3c.65,0,.74-.36.74-.69,0-.73-.14-.78-.6-.87L20.45.55c-.32,0-.41,0-.55.37,0,1.29,0,2.58,0,3.87,0,2.21.14,4.43.14,6.64,0,1.11,0,6.74,0,7.75,0,1.29-.09,2.58-.13,3.87-.1.64.27.78.83.78s.59-.37.59-.64c0-.46,0-1.43.47-1.89S23.53,21,24.92,21H35.65a12.81,12.81,0,0,1,1.38.1,1.89,1.89,0,0,1,.56.18c.32.23.41.92.5,1.61a5.2,5.2,0,0,1-.27,2.45,2.94,2.94,0,0,1-.46.92,3.84,3.84,0,0,1-2.86,1.43A3.53,3.53,0,0,1,31.73,26a3.26,3.26,0,0,1-.41-.83,3.57,3.57,0,0,1-.18-.78,5.34,5.34,0,0,1-.1-1.89,1.37,1.37,0,0,0-.13-1.06.85.85,0,0,0-.33-.14.8.8,0,0,0-.5.28c-1.76,1.38-3.51,2.67-5.21,3.87-1,.6-1.89,1.2-2.86,1.84s-1.61,1.06-1.89,1.29a.87.87,0,0,0-.27.56v4.74c0,.23-.1.65.55.65s.87.09,1-.6c0-1,0-1.24,1.38-2.35.6-.46,1.15-.92,1.7-1.34s1.29-1,1.94-1.47,1.11-.88,1.7-1.29,1.39-1,2.17-1.57a10.61,10.61,0,0,0,1.66,3.32,5,5,0,0,0,3.82,1.94A3.9,3.9,0,0,0,39.15,29a3.67,3.67,0,0,0,.47-1.2,18.56,18.56,0,0,0,.32-3.59c0-1.7-.14-3.41-.14-5.12,0-1.33,0-7.24,0-8.71,0-1.29,0-2.58.09-3.87S40,3.6,40,2.16a2.38,2.38,0,0,1,1.29.3c.78.65.69,2.17.83,4.24V19.47L42,24.72c0,2.63.09,5.12-.51,5.9a1.48,1.48,0,0,1-1.15.55l-.32,0c-.56.09-.46.55-.46.74l0,.32c.09.64.32.69.69.69h.46c1.75,0,3.51-.09,5.26-.09l.55,0c1.24,0,2.44.1,3.69.1,4.51,0,8.34-.6,12.21-3.09a20,20,0,0,0,4.61-4.2,18.28,18.28,0,0,0,3.78-11.42c0-.38,0-.73,0-1.08l.18,0c1.36-.2,1.45.14,1.5,1,.14,2.76.19,4.84.24,7.3l0,3.39a5.08,5.08,0,0,1,0,.87c0,.63,0,1.26,0,1.84,0,.87-.15,2-.19,2.27-.25.73-1.12.78-1.7.82h-.43c-.24,0-.68,0-.68.68v.19c0,.44,0,.73.82.73h.29l2.57-.14c1.59,0,3.19.05,4.74.1l.48,0c.72.05,1-.14,1.06-.58ZM38.14,17c-.28.27-.64.32-1.29.32s-1.34.09-2,.09H24.13a6.91,6.91,0,0,1-2.35-.28c-.31-.17-.46-.63-.45-1.29a4.66,4.66,0,0,1,.18-1.57,2.14,2.14,0,0,1,1.62-.78c.32-.05.64-.05,1-.1h11.7c1.11.1,1.76,0,2.26.46a1.14,1.14,0,0,1,.36.91s0,.72,0,.86C38.42,16.32,38.46,16.64,38.14,17ZM58.25,29.7a17.76,17.76,0,0,1-5.81.87c-2.21,0-4.43-.23-6.64-.41-.09-3.23-.13-6.41-.13-9.63,0-2.91,0-5.76,0-8.67a80.62,80.62,0,0,1,.37-8.8,54.08,54.08,0,0,1,6.13-.46,19.48,19.48,0,0,1,7.19,1,10.89,10.89,0,0,1,5.48,5.25,15.51,15.51,0,0,1,1.57,7C66.45,21.59,64.05,27.53,58.25,29.7Z"/><path d="M1.8,47.91h.53a3.32,3.32,0,0,0,.85-.08c.09,0,.15-.26.19-.65l0,0h.25l0,0c0,.58,0,.89,0,.9s0,.41,0,.9l0,0H3.4l0,0q-.06-.6-.21-.66a4.24,4.24,0,0,0-.83-.07H1.8v.34c0,.32,0,.66,0,1a2.17,2.17,0,0,0,.07.67.29.29,0,0,0,.16.15,3.18,3.18,0,0,0,.53.07l.05,0v.24l-.05,0c-.38,0-.81,0-1.26,0s-.89,0-1.26,0l0,0v-.24l.05,0a2.85,2.85,0,0,0,.53-.07.45.45,0,0,0,.16-.15,1.67,1.67,0,0,0,.07-.54c0-.29,0-.67,0-1.16v-1c0-.3,0-.64,0-1a1.89,1.89,0,0,0-.08-.68.33.33,0,0,0-.16-.15,2.83,2.83,0,0,0-.52-.07l0,0v-.24l.05,0c.8,0,1.53,0,2.18,0s1.43,0,2,0l0,0a6.82,6.82,0,0,0-.11,1.35l0,0H3.86l0,0a5.87,5.87,0,0,0-.14-.87c0-.05-.14-.08-.32-.09s-.46,0-.86,0H1.84c0,.2,0,.55,0,1C1.82,46.94,1.81,47.32,1.8,47.91Z"/><path d="M11.66,47.83a3.54,3.54,0,0,1-.24,1.33,3,3,0,0,1-.69,1,2.61,2.61,0,0,1-.92.59A3.17,3.17,0,0,1,8.69,51a2.84,2.84,0,0,1-2.2-.83,3,3,0,0,1-.75-2.06,3.09,3.09,0,0,1,.36-1.51,2.41,2.41,0,0,1,1.05-1,3.58,3.58,0,0,1,1.62-.35,3.21,3.21,0,0,1,1.54.34,2.39,2.39,0,0,1,1,.95A2.61,2.61,0,0,1,11.66,47.83Zm-1.13.34A3.32,3.32,0,0,0,10,46.29a1.6,1.6,0,0,0-1.41-.71,1.63,1.63,0,0,0-1.27.55,2.42,2.42,0,0,0-.5,1.66,3.73,3.73,0,0,0,.5,2,1.56,1.56,0,0,0,1.43.82,1.48,1.48,0,0,0,1.27-.65A3,3,0,0,0,10.53,48.17Z"/><path d="M13.15,45.6v-.24l0,0a7.33,7.33,0,0,0,.83,0,8.2,8.2,0,0,0,.83,0q.25.39,1.53,1.92c.85,1,1.57,1.85,2.17,2.5l0-3a6.7,6.7,0,0,0,0-.83.34.34,0,0,0-.11-.18,2,2,0,0,0-.63-.1l0,0v-.24l0,0a8.69,8.69,0,0,0,1,0,8.94,8.94,0,0,0,1,0l0,0v.24l0,0a2.85,2.85,0,0,0-.62.08.27.27,0,0,0-.16.17,4.56,4.56,0,0,0,0,.86l0,2.62c0,.58,0,1.08,0,1.51L18.9,51l-.77-.17q-1.87-2.32-3.69-4.29v2.88a7,7,0,0,0,0,.83.25.25,0,0,0,.11.18,1.81,1.81,0,0,0,.63.1l0,0v.24l0,0c-.36,0-.69,0-1,0s-.69,0-1,0l0,0v-.24l0,0a3,3,0,0,0,.57-.07.26.26,0,0,0,.18-.14,1,1,0,0,0,.06-.44v-.46l0-2.5c0-.44,0-.71,0-.8a.82.82,0,0,0-.31-.31,1.38,1.38,0,0,0-.53-.12Z"/><path d="M21.36,50.78v-.24l.05,0a2.85,2.85,0,0,0,.53-.07.33.33,0,0,0,.16-.15,1.67,1.67,0,0,0,.07-.54c0-.29,0-.67,0-1.16v-1c0-.3,0-.64,0-1a2.32,2.32,0,0,0-.07-.68.45.45,0,0,0-.16-.15,3,3,0,0,0-.53-.07l-.05,0v-.24l.05,0c.53,0,.92,0,1.18,0l2,0a3.84,3.84,0,0,1,.88.09,2.28,2.28,0,0,1,.72.31,2.25,2.25,0,0,1,.59.56,2,2,0,0,1,.35.71,2.81,2.81,0,0,1,.11.77A3.07,3.07,0,0,1,27,49.06a3,3,0,0,1-.72,1,2.36,2.36,0,0,1-1,.57,4.77,4.77,0,0,1-1.32.16l-1.31,0-1.2,0Zm1.82-.38.67,0a2.61,2.61,0,0,0,1.23-.25,1.73,1.73,0,0,0,.75-.86,3.55,3.55,0,0,0,.26-1.39,2.47,2.47,0,0,0-.52-1.63,1.86,1.86,0,0,0-1.52-.61l-.87,0Z"/><path d="M31.61,45.21H32l1.79,4.11a3.18,3.18,0,0,0,.51.91,1,1,0,0,0,.62.26l0,0v.24l0,0c-.59,0-1,0-1.34,0l-1.34,0,0,0v-.24l0,0a2.08,2.08,0,0,0,.7-.13A.19.19,0,0,0,33,50.2a2.08,2.08,0,0,0-.14-.46,6.42,6.42,0,0,0-.31-.7H30.33c-.17.39-.28.65-.33.79a1,1,0,0,0-.08.31.27.27,0,0,0,.18.24,1.57,1.57,0,0,0,.61.11l.05,0v.24l0,0c-.4,0-.75,0-1.06,0s-.67,0-1.06,0l0,0v-.24l.05,0a.87.87,0,0,0,.46-.1,1.41,1.41,0,0,0,.37-.45,7,7,0,0,0,.41-.78Zm.82,3.49-1-2.22-1,2.22h2Z"/><path d="M36.05,45.36l0,0c.77,0,1.62.06,2.56.06s1.82,0,2.56-.06l0,0c0,.51,0,1,0,1.3l0,0H41l0,0a4.06,4.06,0,0,0-.13-.74.22.22,0,0,0-.13-.15.85.85,0,0,0-.33,0H39.14l0,1.5v1.34c0,.29,0,.62,0,1a2.41,2.41,0,0,0,.07.69.33.33,0,0,0,.16.15,2.85,2.85,0,0,0,.53.07l0,0v.24l0,0c-.39,0-.8,0-1.24,0s-.86,0-1.23,0l-.05,0v-.24l.05,0a2.85,2.85,0,0,0,.53-.07.31.31,0,0,0,.16-.16,1.7,1.7,0,0,0,.07-.57c0-.3,0-.67,0-1.12V47.25l0-1.52H37a.79.79,0,0,0-.33,0,.24.24,0,0,0-.13.16,5.39,5.39,0,0,0-.12.73l0,0h-.23l0,0C36.08,46.51,36.07,46.07,36.05,45.36Z"/><path d="M42.66,50.78v-.24l.05,0a2.85,2.85,0,0,0,.53-.07.36.36,0,0,0,.15-.15,1.58,1.58,0,0,0,.08-.54c0-.29,0-.67,0-1.16v-1c0-.3,0-.64,0-1a2.17,2.17,0,0,0-.08-.68.38.38,0,0,0-.16-.15,2.83,2.83,0,0,0-.52-.07l-.05,0v-.24l.05,0a12.27,12.27,0,0,0,1.26,0,12,12,0,0,0,1.26,0l.05,0v.24l-.05,0a2.81,2.81,0,0,0-.54.08.27.27,0,0,0-.15.15,1.88,1.88,0,0,0-.07.54c0,.28,0,.67,0,1.15v1c0,.32,0,.66,0,1a2.17,2.17,0,0,0,.07.67.29.29,0,0,0,.16.15,3.18,3.18,0,0,0,.53.07l.05,0v.24l-.05,0c-.39,0-.81,0-1.26,0s-.89,0-1.26,0Z"/><path d="M52.88,47.83a3.54,3.54,0,0,1-.24,1.33,3,3,0,0,1-.68,1,2.64,2.64,0,0,1-.93.59,3.17,3.17,0,0,1-1.12.18,2.85,2.85,0,0,1-2.2-.83A3,3,0,0,1,47,48.06a3,3,0,0,1,.37-1.51,2.41,2.41,0,0,1,1.05-1A3.54,3.54,0,0,1,50,45.18a3.19,3.19,0,0,1,1.54.34,2.41,2.41,0,0,1,1,.95A2.7,2.7,0,0,1,52.88,47.83Zm-1.13.34a3.32,3.32,0,0,0-.48-1.88,1.63,1.63,0,0,0-1.42-.71,1.65,1.65,0,0,0-1.27.55,2.42,2.42,0,0,0-.49,1.66,3.73,3.73,0,0,0,.49,2,1.57,1.57,0,0,0,1.43.82,1.5,1.5,0,0,0,1.28-.65A3,3,0,0,0,51.75,48.17Z"/><path d="M54.38,45.6v-.24l0,0a7.33,7.33,0,0,0,.83,0,8.2,8.2,0,0,0,.83,0q.27.39,1.53,1.92c.85,1,1.57,1.85,2.17,2.5l0-3a6.7,6.7,0,0,0,0-.83.4.4,0,0,0-.1-.18,2.11,2.11,0,0,0-.63-.1l0,0v-.24l0,0a8.42,8.42,0,0,0,1,0,8.84,8.84,0,0,0,1,0l0,0v.24l0,0a2.71,2.71,0,0,0-.61.08.29.29,0,0,0-.17.17,4.56,4.56,0,0,0,0,.86l0,2.62c0,.58,0,1.08,0,1.51l-.07.07-.77-.17q-1.87-2.32-3.69-4.29l0,2.88a5.92,5.92,0,0,0,0,.83.29.29,0,0,0,.12.18,1.72,1.72,0,0,0,.62.1l0,0v.24l0,0c-.36,0-.69,0-1,0s-.68,0-1,0l0,0v-.24l0,0a2.76,2.76,0,0,0,.57-.07.28.28,0,0,0,.19-.14,1.32,1.32,0,0,0,0-.44s0-.2,0-.46l0-2.5v-.8a.84.84,0,0,0-.32-.31,1.38,1.38,0,0,0-.53-.12Z"/><path d="M68,45.82v2.75c0,.32,0,.66,0,1a2.17,2.17,0,0,0,.07.67.29.29,0,0,0,.16.15,3,3,0,0,0,.53.07l0,0v.24l0,0c-.39,0-.81,0-1.27,0s-.89,0-1.26,0l0,0v-.24l0,0a3,3,0,0,0,.54-.07.36.36,0,0,0,.15-.15,1.58,1.58,0,0,0,.08-.54c0-.29,0-.67,0-1.16v-1c0-.3,0-.64,0-1a2.17,2.17,0,0,0-.08-.68.38.38,0,0,0-.16-.15,3,3,0,0,0-.53-.07l0,0v-.24l0,0a12.51,12.51,0,0,0,1.26,0l.66,0h1a3.07,3.07,0,0,1,1.11.15,1.15,1.15,0,0,1,.55.49,1.27,1.27,0,0,1,.19.68,1.42,1.42,0,0,1-.29.86,1.77,1.77,0,0,1-.78.59,2.65,2.65,0,0,1-.94.18,3,3,0,0,1-.53-.05l0-.23,0,0a2.83,2.83,0,0,0,.87-.11.82.82,0,0,0,.47-.37,1.26,1.26,0,0,0,.17-.65,1.07,1.07,0,0,0-.32-.83,1.25,1.25,0,0,0-.89-.28A3.13,3.13,0,0,0,68,45.82Z"/><path d="M78.41,47.83a3.54,3.54,0,0,1-.24,1.33,3,3,0,0,1-.69,1,2.61,2.61,0,0,1-.92.59,3.17,3.17,0,0,1-1.12.18,2.84,2.84,0,0,1-2.2-.83,3,3,0,0,1-.75-2.06,3.09,3.09,0,0,1,.36-1.51,2.41,2.41,0,0,1,1.05-1,3.58,3.58,0,0,1,1.62-.35,3.21,3.21,0,0,1,1.54.34,2.39,2.39,0,0,1,1,.95A2.61,2.61,0,0,1,78.41,47.83Zm-1.13.34a3.32,3.32,0,0,0-.49-1.88,1.6,1.6,0,0,0-1.41-.71,1.63,1.63,0,0,0-1.27.55,2.42,2.42,0,0,0-.5,1.66,3.73,3.73,0,0,0,.5,2,1.56,1.56,0,0,0,1.43.82,1.48,1.48,0,0,0,1.27-.65A3,3,0,0,0,77.28,48.17Z"/><path d="M79.83,45.6v-.24l0,0a12.51,12.51,0,0,0,1.26,0,12.11,12.11,0,0,0,1.27,0l0,0v.24l0,0a2.81,2.81,0,0,0-.54.08.27.27,0,0,0-.15.15,1.57,1.57,0,0,0-.07.54c0,.28,0,.67,0,1.15v1a3.31,3.31,0,0,0,.12,1,1,1,0,0,0,.46.53,1.83,1.83,0,0,0,.92.19,2,2,0,0,0,.8-.13,1,1,0,0,0,.47-.35,1.41,1.41,0,0,0,.23-.62,6.28,6.28,0,0,0,.08-1.1v-1.4a5.63,5.63,0,0,0,0-.82.35.35,0,0,0-.12-.19,2.11,2.11,0,0,0-.63-.1l0,0v-.24l0,0a8.69,8.69,0,0,0,1,0,9.27,9.27,0,0,0,1,0l0,0v.24l0,0a2.07,2.07,0,0,0-.61.1.23.23,0,0,0-.13.17,7.1,7.1,0,0,0,0,.84l0,2a3.15,3.15,0,0,1-.15,1.1,1.57,1.57,0,0,1-.44.66,2.13,2.13,0,0,1-.69.38,3.28,3.28,0,0,1-1,.12,3.37,3.37,0,0,1-1-.13,1.87,1.87,0,0,1-.69-.35,1.35,1.35,0,0,1-.4-.6,2.82,2.82,0,0,1-.14-1V47.57c0-.3,0-.64,0-1a2.17,2.17,0,0,0-.08-.68.38.38,0,0,0-.16-.15,3,3,0,0,0-.53-.07Z"/><path d="M89.47,48l.09-.11h.17a1.7,1.7,0,0,0,1.18-.32,1.13,1.13,0,0,0,.32-.81A1,1,0,0,0,91,46a1.22,1.22,0,0,0-.86-.28,4,4,0,0,0-.82.1v2.76c0,.32,0,.66,0,1a2.17,2.17,0,0,0,.07.67.29.29,0,0,0,.16.15,3.18,3.18,0,0,0,.53.07l0,0v.24l0,0c-.38,0-.81,0-1.26,0s-.89,0-1.26,0l0,0v-.24l0,0a2.85,2.85,0,0,0,.53-.07.36.36,0,0,0,.15-.15,1.36,1.36,0,0,0,.08-.54c0-.29,0-.67,0-1.16v-1c0-.3,0-.64,0-1a1.89,1.89,0,0,0-.08-.68.33.33,0,0,0-.16-.15,2.83,2.83,0,0,0-.52-.07l0,0v-.24l0,0a11.8,11.8,0,0,0,1.26,0l.86,0,1.08,0a2.36,2.36,0,0,1,.8.12,1.17,1.17,0,0,1,.56.4,1.08,1.08,0,0,1,.24.7,1.37,1.37,0,0,1-.36.91,2.21,2.21,0,0,1-1.13.6l1.7,2a2.31,2.31,0,0,0,.36.36.64.64,0,0,0,.34.07l0,0v.24l0,0a5.52,5.52,0,0,0-.66,0,6,6,0,0,0-.72,0Z"/><path d="M98,50.78v-.24l0,0a2.87,2.87,0,0,0,.54-.07.36.36,0,0,0,.15-.15,1.58,1.58,0,0,0,.08-.54c0-.29,0-.67,0-1.16v-1c0-.3,0-.64,0-1a2.17,2.17,0,0,0-.08-.68.38.38,0,0,0-.16-.15,3,3,0,0,0-.53-.07l0,0v-.24l0,0a12.51,12.51,0,0,0,1.26,0,12.11,12.11,0,0,0,1.27,0l.05,0v.24l-.05,0a2.81,2.81,0,0,0-.54.08.27.27,0,0,0-.15.15,1.57,1.57,0,0,0-.07.54c0,.28,0,.67,0,1.15v1c0,.64,0,1.24,0,1.81h.7l1,0a2.21,2.21,0,0,0,.62-.08.59.59,0,0,0,.14-.32l.16-.69,0,0h.25l0,0q-.08.7-.12,1.5l-.05,0-2.18,0c-.93,0-1.71,0-2.35,0Z"/><path d="M108.83,49.24l0,0c-.06.47-.1,1-.13,1.5l0,0-2.19,0c-.92,0-1.7,0-2.34,0l0,0v-.24l0,0a2.85,2.85,0,0,0,.53-.07.33.33,0,0,0,.16-.15,1.67,1.67,0,0,0,.07-.54c0-.29,0-.67,0-1.16v-1c0-.3,0-.64,0-1a2.32,2.32,0,0,0-.07-.68.4.4,0,0,0-.17-.15,2.68,2.68,0,0,0-.52-.07l0,0v-.24l0,0c.5,0,1.29,0,2.34,0s1.65,0,2.11,0l0,0a6.16,6.16,0,0,0-.12,1.19v.16l0,0h-.27l0,0a4.93,4.93,0,0,0-.13-.88c0-.06-.23-.09-.56-.09h-1.55c0,.33,0,.67,0,1v1.06h.64l.75,0a.24.24,0,0,0,.16-.12,2.27,2.27,0,0,0,.13-.61l0,0h.26l0,0c0,.36,0,.61,0,.73,0,.56,0,1,0,1.19l0,0h-.26l0,0a2.41,2.41,0,0,0-.1-.61.31.31,0,0,0-.18-.16,4.26,4.26,0,0,0-.73,0l-.66,0c0,.41,0,.71,0,.91l0,1.34h.7l1,0a2.28,2.28,0,0,0,.62-.08.61.61,0,0,0,.13-.32l.17-.69,0,0Z"/><path d="M110.62,49.38h.26l0,0a1.54,1.54,0,0,0,.11.69.71.71,0,0,0,.39.35,1.62,1.62,0,0,0,.7.13,1.59,1.59,0,0,0,1.08-.33,1.07,1.07,0,0,0,.38-.86,1.19,1.19,0,0,0-.08-.44.63.63,0,0,0-.28-.3,1.34,1.34,0,0,0-.38-.14l-.55-.1a5.5,5.5,0,0,1-.94-.22,1.16,1.16,0,0,1-.52-.44,1.37,1.37,0,0,1-.2-.75,1.79,1.79,0,0,1,1.05-1.61,2.82,2.82,0,0,1,1.11-.22,2.72,2.72,0,0,1,1.43.39,4.56,4.56,0,0,0-.13,1.11l0,0h-.24l0,0a2.42,2.42,0,0,0-.07-.62.6.6,0,0,0-.3-.32,1.15,1.15,0,0,0-.64-.16,1.38,1.38,0,0,0-.94.3,1,1,0,0,0-.34.76.74.74,0,0,0,.13.46.6.6,0,0,0,.32.25,3.92,3.92,0,0,0,.66.15,7.83,7.83,0,0,1,1.16.25,1.11,1.11,0,0,1,.56.45,1.47,1.47,0,0,1,.22.8,1.76,1.76,0,0,1-.68,1.4,2.69,2.69,0,0,1-1.79.57,3.91,3.91,0,0,1-1.56-.31,8.9,8.9,0,0,0,.08-1.24Z"/><path d="M124.33,49.24l0,0c0,.47-.1,1-.13,1.5l0,0-2.18,0c-.93,0-1.71,0-2.35,0l0,0v-.24l0,0a3,3,0,0,0,.54-.07.36.36,0,0,0,.15-.15,1.58,1.58,0,0,0,.08-.54c0-.29,0-.67,0-1.16v-1c0-.3,0-.64,0-1a2.17,2.17,0,0,0-.08-.68.38.38,0,0,0-.16-.15,3,3,0,0,0-.53-.07l0,0v-.24l0,0c.51,0,1.29,0,2.35,0s1.64,0,2.1,0l0,0a6.16,6.16,0,0,0-.12,1.19v.16l0,0h-.28l0,0a4.47,4.47,0,0,0-.14-.88c0-.06-.22-.09-.56-.09h-1.55c0,.33,0,.67,0,1,0,.59,0,.94,0,1.06h.63l.75,0a.26.26,0,0,0,.17-.12,3.12,3.12,0,0,0,.12-.61l0,0h.25l0,0c0,.36,0,.61,0,.73,0,.56,0,1,0,1.19l0,0h-.26l0,0a3,3,0,0,0-.1-.61.31.31,0,0,0-.19-.16,4.16,4.16,0,0,0-.73,0l-.65,0c0,.41,0,.71,0,.91,0,.45,0,.9,0,1.34h.7l1,0a2.28,2.28,0,0,0,.62-.08.59.59,0,0,0,.14-.32l.16-.69,0,0ZM124,42.8l-2.46,1.6h-.06l-.11-.11v-.06l1.46-1.5,1-.11.06,0Z"/><path d="M125.75,45.36l0,0c.77,0,1.62.06,2.57.06s1.81,0,2.56-.06l0,0c0,.51,0,1,0,1.3l0,0h-.24l0,0a3.28,3.28,0,0,0-.13-.74.22.22,0,0,0-.13-.15.79.79,0,0,0-.33,0h-1.19l0,1.5v1.34c0,.29,0,.62,0,1a2.41,2.41,0,0,0,.07.69.33.33,0,0,0,.16.15,2.85,2.85,0,0,0,.53.07l0,0v.24l0,0c-.39,0-.8,0-1.23,0s-.87,0-1.24,0l-.05,0v-.24l.05,0a3.19,3.19,0,0,0,.54-.07.34.34,0,0,0,.15-.16,1.7,1.7,0,0,0,.07-.57c0-.3,0-.67,0-1.12V47.25l0-1.52h-1.19a.82.82,0,0,0-.33,0,.24.24,0,0,0-.13.16,5.39,5.39,0,0,0-.12.73l0,0h-.23l0,0C125.78,46.51,125.77,46.07,125.75,45.36Z"/><path d="M132.11,45.6v-.24l0,0a15.9,15.9,0,0,0,2.52,0l0,0v.24l0,0a2.81,2.81,0,0,0-.54.08.27.27,0,0,0-.15.15,1.57,1.57,0,0,0-.07.54c0,.28,0,.67,0,1.15v1a3.31,3.31,0,0,0,.12,1,1,1,0,0,0,.46.53,1.83,1.83,0,0,0,.92.19,2.08,2.08,0,0,0,.81-.13,1,1,0,0,0,.46-.35,1.41,1.41,0,0,0,.23-.62,6.28,6.28,0,0,0,.08-1.1v-1.4a5.63,5.63,0,0,0,0-.82.35.35,0,0,0-.12-.19,2.11,2.11,0,0,0-.63-.1l0,0v-.24l0,0a8.86,8.86,0,0,0,1,0,9.21,9.21,0,0,0,1,0l0,0v.24l0,0a2.07,2.07,0,0,0-.61.1.23.23,0,0,0-.13.17,7.1,7.1,0,0,0,0,.84l0,2a3.15,3.15,0,0,1-.15,1.1,1.57,1.57,0,0,1-.44.66,2.13,2.13,0,0,1-.69.38,3.28,3.28,0,0,1-1,.12,3.42,3.42,0,0,1-1-.13,1.87,1.87,0,0,1-.69-.35,1.35,1.35,0,0,1-.4-.6,2.82,2.82,0,0,1-.14-1V47.57c0-.3,0-.64,0-1a2.17,2.17,0,0,0-.08-.68.38.38,0,0,0-.16-.15,3,3,0,0,0-.52-.07Z"/><path d="M139.77,50.78v-.24l0,0a2.85,2.85,0,0,0,.53-.07.36.36,0,0,0,.15-.15,1.58,1.58,0,0,0,.08-.54c0-.29,0-.67,0-1.16v-1c0-.3,0-.64,0-1a2.17,2.17,0,0,0-.08-.68.38.38,0,0,0-.16-.15,2.83,2.83,0,0,0-.52-.07l0,0v-.24l0,0c.53,0,.92,0,1.17,0l2,0a3.78,3.78,0,0,1,.88.09,2.28,2.28,0,0,1,.72.31,2.45,2.45,0,0,1,.6.56,2.35,2.35,0,0,1,.35.71,2.8,2.8,0,0,1,.1.77,3.07,3.07,0,0,1-.27,1.29,3,3,0,0,1-.72,1,2.25,2.25,0,0,1-1,.57,4.77,4.77,0,0,1-1.32.16l-1.31,0-1.19,0Zm1.81-.38.67,0a2.69,2.69,0,0,0,1.24-.25,1.67,1.67,0,0,0,.74-.86,3.55,3.55,0,0,0,.26-1.39,2.47,2.47,0,0,0-.51-1.63,1.9,1.9,0,0,0-1.53-.61l-.87,0Z"/><path d="M151.88,49.24l0,0c-.06.47-.1,1-.13,1.5l0,0-2.19,0c-.92,0-1.71,0-2.34,0l-.05,0v-.24l.05,0a2.85,2.85,0,0,0,.53-.07.38.38,0,0,0,.16-.15,1.67,1.67,0,0,0,.07-.54c0-.29,0-.67,0-1.16v-1c0-.3,0-.64,0-1a1.89,1.89,0,0,0-.08-.68.33.33,0,0,0-.16-.15,2.83,2.83,0,0,0-.52-.07l-.05,0v-.24l.05,0c.5,0,1.28,0,2.34,0s1.64,0,2.1,0l0,0a7,7,0,0,0-.11,1.19v.16l0,0h-.27l0,0a3.75,3.75,0,0,0-.14-.88c0-.06-.22-.09-.56-.09H149q0,.5,0,1c0,.59,0,.94,0,1.06h.63l.76,0a.24.24,0,0,0,.16-.12,2.27,2.27,0,0,0,.13-.61l0,0h.25l0,0c0,.36,0,.61,0,.73,0,.56,0,1,0,1.19l0,0h-.26l0,0a2.41,2.41,0,0,0-.1-.61.31.31,0,0,0-.18-.16,4.26,4.26,0,0,0-.73,0l-.66,0c0,.41,0,.71,0,.91l0,1.34h.69l1,0a2.32,2.32,0,0,0,.63-.08.61.61,0,0,0,.13-.32l.16-.69,0,0Z"/><path d="M153.67,49.38h.26l0,0a1.7,1.7,0,0,0,.11.69.77.77,0,0,0,.4.35,1.94,1.94,0,0,0,1.78-.2,1.1,1.1,0,0,0,.38-.86,1,1,0,0,0-.09-.44.66.66,0,0,0-.27-.3,1.34,1.34,0,0,0-.38-.14l-.55-.1a5.27,5.27,0,0,1-.94-.22,1.16,1.16,0,0,1-.52-.44,1.37,1.37,0,0,1-.2-.75,1.77,1.77,0,0,1,.27-.94,1.73,1.73,0,0,1,.77-.67,2.82,2.82,0,0,1,1.11-.22,2.69,2.69,0,0,1,1.43.39,5.81,5.81,0,0,0-.13,1.11l0,0h-.23l0,0a2.13,2.13,0,0,0-.06-.62.64.64,0,0,0-.3-.32,1.15,1.15,0,0,0-.64-.16,1.38,1.38,0,0,0-.94.3.94.94,0,0,0-.34.76.81.81,0,0,0,.12.46.67.67,0,0,0,.33.25,3.69,3.69,0,0,0,.66.15,8.15,8.15,0,0,1,1.16.25,1.15,1.15,0,0,1,.56.45,1.47,1.47,0,0,1,.21.8,1.75,1.75,0,0,1-.67,1.4,2.71,2.71,0,0,1-1.79.57,4,4,0,0,1-1.57-.31,7.5,7.5,0,0,0,.09-1.24Z"/><path d="M167.38,49.24l0,0c0,.47-.1,1-.13,1.5l0,0-2.18,0c-.93,0-1.71,0-2.35,0l-.05,0v-.24l.05,0a3.19,3.19,0,0,0,.54-.07.36.36,0,0,0,.15-.15,1.42,1.42,0,0,0,.07-.54c0-.29,0-.67,0-1.16v-1c0-.3,0-.64,0-1a2,2,0,0,0-.07-.68.45.45,0,0,0-.16-.15,3,3,0,0,0-.53-.07l-.05,0v-.24l.05,0c.51,0,1.29,0,2.35,0s1.64,0,2.1,0l0,0a6.16,6.16,0,0,0-.12,1.19v.16l0,0h-.28l0,0a5.53,5.53,0,0,0-.14-.88c0-.06-.23-.09-.56-.09h-1.55c0,.33,0,.67,0,1v1.06h.64l.75,0a.22.22,0,0,0,.16-.12,2.27,2.27,0,0,0,.13-.61l0,0h.26l0,0c0,.36,0,.61,0,.73,0,.56,0,1,0,1.19l0,0h-.26l0,0a2,2,0,0,0-.1-.61.29.29,0,0,0-.18-.16,4.16,4.16,0,0,0-.73,0l-.66,0c0,.41,0,.71,0,.91l0,1.34h.7l1,0a2.28,2.28,0,0,0,.62-.08.53.53,0,0,0,.13-.32l.17-.69,0,0Z"/><path d="M168.8,45.36l0,0c.76,0,1.62.06,2.56.06s1.82,0,2.56-.06l0,0c0,.51,0,1,0,1.3l0,0h-.23l0,0a4.54,4.54,0,0,0-.12-.74.22.22,0,0,0-.13-.15.85.85,0,0,0-.33,0h-1.19l0,1.5v1.34c0,.29,0,.62,0,1a2.41,2.41,0,0,0,.07.69.33.33,0,0,0,.16.15,2.85,2.85,0,0,0,.53.07l.05,0v.24l-.05,0c-.39,0-.8,0-1.24,0s-.86,0-1.23,0l0,0v-.24l0,0a2.85,2.85,0,0,0,.53-.07.31.31,0,0,0,.16-.16,1.7,1.7,0,0,0,.07-.57c0-.3,0-.67,0-1.12V47.25l0-1.52h-1.19a.88.88,0,0,0-.34,0,.26.26,0,0,0-.12.16,5.39,5.39,0,0,0-.12.73l0,0h-.23l0,0C168.83,46.51,168.82,46.07,168.8,45.36Z"/><path d="M180.88,48l.08-.11h.17a1.73,1.73,0,0,0,1.19-.32,1.13,1.13,0,0,0,.32-.81,1,1,0,0,0-.28-.76,1.22,1.22,0,0,0-.86-.28,4,4,0,0,0-.82.1v2.76c0,.32,0,.66,0,1a2.17,2.17,0,0,0,.07.67.29.29,0,0,0,.16.15,3,3,0,0,0,.53.07l.05,0v.24l-.05,0c-.39,0-.81,0-1.27,0s-.88,0-1.26,0l0,0v-.24l0,0a2.87,2.87,0,0,0,.54-.07.36.36,0,0,0,.15-.15,1.36,1.36,0,0,0,.08-.54c0-.29,0-.67,0-1.16v-1c0-.3,0-.64,0-1a2.17,2.17,0,0,0-.08-.68.38.38,0,0,0-.16-.15,2.85,2.85,0,0,0-.53-.07l0,0v-.24l0,0a12,12,0,0,0,1.26,0l.87,0,1.08,0a2.36,2.36,0,0,1,.8.12,1.17,1.17,0,0,1,.56.4,1.07,1.07,0,0,1,.23.7,1.4,1.4,0,0,1-.35.91,2.21,2.21,0,0,1-1.13.6l1.69,2a2.73,2.73,0,0,0,.37.36.64.64,0,0,0,.34.07l0,0v.24l0,0a5.52,5.52,0,0,0-.66,0,6.18,6.18,0,0,0-.73,0Z"/><path d="M190.38,49.24l0,0c-.06.47-.1,1-.13,1.5l0,0-2.19,0c-.92,0-1.7,0-2.34,0l-.05,0v-.24l.05,0a2.85,2.85,0,0,0,.53-.07.38.38,0,0,0,.16-.15,1.67,1.67,0,0,0,.07-.54c0-.29,0-.67,0-1.16v-1c0-.3,0-.64,0-1a1.89,1.89,0,0,0-.08-.68.33.33,0,0,0-.16-.15,2.83,2.83,0,0,0-.52-.07l-.05,0v-.24l.05,0c.5,0,1.28,0,2.34,0s1.64,0,2.11,0l0,0a6.16,6.16,0,0,0-.12,1.19v.16l0,0h-.27l0,0a3.75,3.75,0,0,0-.14-.88c0-.06-.22-.09-.55-.09h-1.55q0,.5,0,1c0,.59,0,.94,0,1.06h.63l.76,0a.24.24,0,0,0,.16-.12,2.27,2.27,0,0,0,.13-.61l0,0h.25l0,0c0,.36,0,.61,0,.73,0,.56,0,1,0,1.19l0,0h-.25l0,0a2.41,2.41,0,0,0-.1-.61.31.31,0,0,0-.18-.16,4.26,4.26,0,0,0-.73,0l-.66,0c0,.41,0,.71,0,.91l0,1.34h.7l1,0a2.28,2.28,0,0,0,.62-.08.61.61,0,0,0,.13-.32l.17-.69,0,0Z"/><path d="M197.33,50l-.13.41a2.27,2.27,0,0,1-1,.47,4.58,4.58,0,0,1-1.14.15,3.48,3.48,0,0,1-1.66-.4,2.71,2.71,0,0,1-1.1-1.1,3.18,3.18,0,0,1-.37-1.48,2.74,2.74,0,0,1,.47-1.62,2.9,2.9,0,0,1,1.15-1,4,4,0,0,1,1.64-.3,5.56,5.56,0,0,1,2,.37l0,.05a8.62,8.62,0,0,0-.13,1.43l0,0h-.25l0,0a3,3,0,0,0-.07-.67.86.86,0,0,0-.28-.42,1.54,1.54,0,0,0-.58-.31,2.7,2.7,0,0,0-.77-.11,2.06,2.06,0,0,0-1.52.58,2.28,2.28,0,0,0-.59,1.73,3.74,3.74,0,0,0,.25,1.42,2.08,2.08,0,0,0,.8,1,2.42,2.42,0,0,0,1.34.36,2.26,2.26,0,0,0,1.79-.72Z"/><path d="M200.36,47.73l1.49,0,1.47,0v-.16c0-.29,0-.62,0-1a2,2,0,0,0-.08-.69.36.36,0,0,0-.15-.15,3.18,3.18,0,0,0-.53-.07l-.05,0v-.24l.05,0a12.15,12.15,0,0,0,1.23,0,11.75,11.75,0,0,0,1.24,0l0,0v.24l0,0a2.81,2.81,0,0,0-.54.08.27.27,0,0,0-.15.15,1.54,1.54,0,0,0-.07.57c0,.3,0,.68,0,1.12v2a2,2,0,0,0,.07.68.26.26,0,0,0,.16.15,3,3,0,0,0,.53.07l0,0v.24l0,0c-.39,0-.8,0-1.24,0s-.86,0-1.23,0l-.05,0v-.24l.05,0a2.85,2.85,0,0,0,.53-.07.33.33,0,0,0,.16-.15,1.69,1.69,0,0,0,.07-.55c0-.28,0-.67,0-1.15V48.1l-1.47,0-1.49,0v.47c0,.31,0,.65,0,1a1.82,1.82,0,0,0,.08.67.26.26,0,0,0,.16.15,2.83,2.83,0,0,0,.52.07l.05,0v.24l-.05,0c-.39,0-.8,0-1.23,0s-.87,0-1.24,0l0,0v-.24l0,0a2.85,2.85,0,0,0,.53-.07.33.33,0,0,0,.16-.15,1.67,1.67,0,0,0,.07-.54c0-.29,0-.67,0-1.16v-1c0-.3,0-.64,0-1a2.32,2.32,0,0,0-.07-.68.45.45,0,0,0-.16-.15,3,3,0,0,0-.53-.07l0,0v-.24l0,0a12.23,12.23,0,0,0,1.24,0,11.67,11.67,0,0,0,1.23,0l.05,0v.24l-.05,0a2.52,2.52,0,0,0-.53.08.27.27,0,0,0-.16.14,1.67,1.67,0,0,0-.07.54c0,.29,0,.67,0,1.16Z"/><path d="M211,49.24l0,0c-.06.47-.1,1-.13,1.5l0,0-2.19,0c-.92,0-1.7,0-2.34,0l-.05,0v-.24l.05,0a2.85,2.85,0,0,0,.53-.07.38.38,0,0,0,.16-.15,1.67,1.67,0,0,0,.07-.54c0-.29,0-.67,0-1.16v-1c0-.3,0-.64,0-1a1.89,1.89,0,0,0-.08-.68.33.33,0,0,0-.16-.15,2.83,2.83,0,0,0-.52-.07l-.05,0v-.24l.05,0c.5,0,1.28,0,2.34,0s1.65,0,2.11,0l0,0a6.16,6.16,0,0,0-.12,1.19v.16l0,0h-.27l0,0a3.75,3.75,0,0,0-.14-.88c0-.06-.22-.09-.55-.09h-1.55q0,.5,0,1c0,.59,0,.94,0,1.06h.63l.76,0a.24.24,0,0,0,.16-.12,2.27,2.27,0,0,0,.13-.61l0,0h.25l0,0c0,.36,0,.61,0,.73,0,.56,0,1,0,1.19l0,0h-.25l0,0a2.41,2.41,0,0,0-.1-.61.31.31,0,0,0-.18-.16,4.26,4.26,0,0,0-.73,0l-.66,0c0,.41,0,.71,0,.91l0,1.34h.7l1,0a2.28,2.28,0,0,0,.62-.08.61.61,0,0,0,.13-.32l.17-.69,0,0Z"/><path d="M214.65,48l.08-.11h.17a1.68,1.68,0,0,0,1.18-.32,1.1,1.1,0,0,0,.33-.81,1,1,0,0,0-.29-.76,1.2,1.2,0,0,0-.86-.28,4.07,4.07,0,0,0-.82.1v2.76c0,.32,0,.66,0,1a1.88,1.88,0,0,0,.07.67.26.26,0,0,0,.16.15,3,3,0,0,0,.53.07l0,0v.24l0,0c-.39,0-.81,0-1.27,0s-.89,0-1.26,0l0,0v-.24l0,0a3,3,0,0,0,.54-.07.36.36,0,0,0,.15-.15,1.42,1.42,0,0,0,.07-.54c0-.29,0-.67,0-1.16v-1c0-.3,0-.64,0-1a2,2,0,0,0-.07-.68.45.45,0,0,0-.16-.15,3,3,0,0,0-.53-.07l0,0v-.24l0,0a12,12,0,0,0,1.26,0l.87,0,1.08,0a2.36,2.36,0,0,1,.8.12,1.17,1.17,0,0,1,.56.4,1.13,1.13,0,0,1,.23.7,1.37,1.37,0,0,1-.36.91A2.13,2.13,0,0,1,216,48l1.7,2a2.24,2.24,0,0,0,.37.36.64.64,0,0,0,.34.07l0,0v.24l0,0a5.52,5.52,0,0,0-.66,0,6.06,6.06,0,0,0-.73,0Z"/><path d="M224.84,50l-.13.41a2.27,2.27,0,0,1-1,.47,4.58,4.58,0,0,1-1.14.15,3.45,3.45,0,0,1-1.66-.4,2.71,2.71,0,0,1-1.1-1.1,3.07,3.07,0,0,1-.37-1.48,2.74,2.74,0,0,1,.47-1.62,2.94,2.94,0,0,1,1.14-1,4,4,0,0,1,1.64-.3,5.49,5.49,0,0,1,2,.37l0,.05a8.41,8.41,0,0,0-.14,1.43l0,0h-.24l0,0a2.61,2.61,0,0,0-.06-.67.89.89,0,0,0-.29-.42,1.4,1.4,0,0,0-.58-.31,2.65,2.65,0,0,0-.77-.11,2.05,2.05,0,0,0-1.51.58,2.29,2.29,0,0,0-.6,1.73,3.74,3.74,0,0,0,.26,1.42,2,2,0,0,0,.8,1,2.38,2.38,0,0,0,1.33.36,2.26,2.26,0,0,0,1.8-.72Z"/><path d="M227.87,47.73l1.49,0,1.47,0v-.16c0-.29,0-.62,0-1a2.26,2.26,0,0,0-.08-.69.33.33,0,0,0-.16-.15,2.85,2.85,0,0,0-.53-.07l0,0v-.24l0,0a12.35,12.35,0,0,0,1.24,0,11.87,11.87,0,0,0,1.24,0l0,0v.24l0,0a2.53,2.53,0,0,0-.54.08.26.26,0,0,0-.16.15,2.18,2.18,0,0,0-.07.57c0,.3,0,.68,0,1.12v2a2.12,2.12,0,0,0,.08.68.26.26,0,0,0,.16.15,3,3,0,0,0,.53.07l0,0v.24l0,0c-.39,0-.81,0-1.24,0s-.87,0-1.24,0l0,0v-.24l0,0a3,3,0,0,0,.54-.07.38.38,0,0,0,.16-.15,2,2,0,0,0,.07-.55c0-.28,0-.67,0-1.15V48.1l-1.47,0-1.49,0v.47c0,.31,0,.65,0,1a2.23,2.23,0,0,0,.07.67.29.29,0,0,0,.16.15,3.18,3.18,0,0,0,.53.07l.05,0v.24l-.05,0c-.39,0-.8,0-1.23,0s-.87,0-1.24,0l0,0v-.24l0,0a2.85,2.85,0,0,0,.53-.07.38.38,0,0,0,.16-.15,1.67,1.67,0,0,0,.07-.54c0-.29,0-.67,0-1.16v-1c0-.3,0-.64,0-1a1.89,1.89,0,0,0-.08-.68.33.33,0,0,0-.16-.15,2.83,2.83,0,0,0-.52-.07l0,0v-.24l0,0a12.23,12.23,0,0,0,1.24,0,11.67,11.67,0,0,0,1.23,0l.05,0v.24l-.05,0a2.81,2.81,0,0,0-.54.08.29.29,0,0,0-.15.14,1.67,1.67,0,0,0-.07.54c0,.29,0,.67,0,1.16Z"/><path d="M238.51,49.24l0,0c-.06.47-.1,1-.13,1.5l0,0-2.19,0c-.93,0-1.71,0-2.34,0l0,0v-.24l0,0a2.85,2.85,0,0,0,.53-.07.45.45,0,0,0,.16-.15,1.67,1.67,0,0,0,.07-.54c0-.29,0-.67,0-1.16v-1c0-.3,0-.64,0-1a1.89,1.89,0,0,0-.08-.68.33.33,0,0,0-.16-.15,2.83,2.83,0,0,0-.52-.07l0,0v-.24l0,0c.5,0,1.28,0,2.34,0s1.64,0,2.1,0l0,0a7,7,0,0,0-.11,1.19v.16l0,0h-.27l0,0a3.75,3.75,0,0,0-.14-.88c0-.06-.22-.09-.56-.09h-1.54q0,.5,0,1c0,.59,0,.94,0,1.06h.63l.76,0a.24.24,0,0,0,.16-.12,2,2,0,0,0,.12-.61l0,0h.25l0,0c0,.36,0,.61,0,.73,0,.56,0,1,0,1.19l0,0h-.26l0,0a2.41,2.41,0,0,0-.1-.61.31.31,0,0,0-.18-.16,4.32,4.32,0,0,0-.74,0l-.65,0c0,.41,0,.71,0,.91l0,1.34h.69l1,0a2.21,2.21,0,0,0,.62-.08c.06,0,.1-.14.14-.32l.16-.69,0,0Z"/><path d="M240.3,49.38h.26l0,0a1.7,1.7,0,0,0,.11.69.74.74,0,0,0,.4.35,1.6,1.6,0,0,0,.69.13,1.63,1.63,0,0,0,1.09-.33,1.1,1.1,0,0,0,.38-.86,1,1,0,0,0-.09-.44.66.66,0,0,0-.27-.3,1.34,1.34,0,0,0-.38-.14l-.55-.1a5.27,5.27,0,0,1-.94-.22,1.16,1.16,0,0,1-.52-.44,1.29,1.29,0,0,1-.2-.75,1.77,1.77,0,0,1,.27-.94,1.68,1.68,0,0,1,.77-.67,2.82,2.82,0,0,1,1.11-.22,2.69,2.69,0,0,1,1.43.39,5.81,5.81,0,0,0-.13,1.11l0,0h-.23l0,0a2.13,2.13,0,0,0-.06-.62.69.69,0,0,0-.3-.32,1.16,1.16,0,0,0-.65-.16,1.37,1.37,0,0,0-.93.3.94.94,0,0,0-.34.76.81.81,0,0,0,.12.46.67.67,0,0,0,.33.25,3.75,3.75,0,0,0,.65.15,7.54,7.54,0,0,1,1.16.25,1.07,1.07,0,0,1,.56.45,1.39,1.39,0,0,1,.22.8,1.73,1.73,0,0,1-.68,1.4,2.66,2.66,0,0,1-1.78.57,4,4,0,0,1-1.57-.31,7.59,7.59,0,0,0,.08-1.24Z"/><path d="M.19,63.77H.45l0,0a1.73,1.73,0,0,0,.1.69.77.77,0,0,0,.4.35,1.62,1.62,0,0,0,.7.13,1.59,1.59,0,0,0,1.08-.33,1.07,1.07,0,0,0,.38-.86,1,1,0,0,0-.09-.44.61.61,0,0,0-.27-.3,1.09,1.09,0,0,0-.38-.14l-.55-.1a5.5,5.5,0,0,1-.94-.22,1.16,1.16,0,0,1-.52-.44,1.4,1.4,0,0,1-.2-.75,1.77,1.77,0,0,1,.27-.94,1.65,1.65,0,0,1,.78-.67,2.82,2.82,0,0,1,1.11-.22A2.72,2.72,0,0,1,3.79,60a4.5,4.5,0,0,0-.13,1.11l0,0H3.38l0,0a2.42,2.42,0,0,0-.07-.62.6.6,0,0,0-.3-.32A1.15,1.15,0,0,0,2.34,60a1.38,1.38,0,0,0-.94.3.94.94,0,0,0-.34.76.74.74,0,0,0,.13.46.66.66,0,0,0,.32.25,3.69,3.69,0,0,0,.66.15,8.15,8.15,0,0,1,1.16.25,1.15,1.15,0,0,1,.56.45,1.47,1.47,0,0,1,.22.8,1.77,1.77,0,0,1-.68,1.4,2.71,2.71,0,0,1-1.79.57,3.91,3.91,0,0,1-1.56-.31,9,9,0,0,0,.08-1.24Z"/><path d="M5.56,60v-.24l0,0a12.51,12.51,0,0,0,1.26,0,12.11,12.11,0,0,0,1.27,0l0,0V60l0,0a2.81,2.81,0,0,0-.54.08.27.27,0,0,0-.15.15,1.57,1.57,0,0,0-.07.54c0,.28,0,.67,0,1.15v1a3.31,3.31,0,0,0,.12,1,1,1,0,0,0,.46.53,1.94,1.94,0,0,0,.92.19,2,2,0,0,0,.8-.13,1,1,0,0,0,.47-.35,1.41,1.41,0,0,0,.23-.63,6.07,6.07,0,0,0,.08-1.09v-1.4a5.63,5.63,0,0,0,0-.82.35.35,0,0,0-.12-.19,2.11,2.11,0,0,0-.63-.1l0,0v-.24l0,0a8.69,8.69,0,0,0,1,0,9.27,9.27,0,0,0,1,0l0,0V60l0,0a2.07,2.07,0,0,0-.61.1.23.23,0,0,0-.13.17,7.1,7.1,0,0,0,0,.84l0,2a3.15,3.15,0,0,1-.15,1.1,1.57,1.57,0,0,1-.44.66,2.13,2.13,0,0,1-.69.38,3.28,3.28,0,0,1-1,.12,3.37,3.37,0,0,1-1-.13,1.87,1.87,0,0,1-.69-.35,1.35,1.35,0,0,1-.4-.6,2.82,2.82,0,0,1-.14-1V62c0-.3,0-.65,0-1a2.17,2.17,0,0,0-.08-.68.38.38,0,0,0-.16-.15,3,3,0,0,0-.53-.07Z"/><path d="M15.2,62.39l.09-.12h.17A1.7,1.7,0,0,0,16.64,62a1.13,1.13,0,0,0,.32-.81,1,1,0,0,0-.28-.76,1.22,1.22,0,0,0-.86-.28,4,4,0,0,0-.82.1V63c0,.32,0,.66,0,1a2.23,2.23,0,0,0,.07.67.31.31,0,0,0,.17.15,2.83,2.83,0,0,0,.52.07l.05,0v.25l-.05,0c-.38,0-.81,0-1.26,0s-.89,0-1.26,0l-.05,0v-.25l.05,0a2,2,0,0,0,.53-.08.35.35,0,0,0,.16-.14,1.67,1.67,0,0,0,.07-.54c0-.29,0-.68,0-1.16V62c0-.3,0-.65,0-1a1.89,1.89,0,0,0-.08-.68.33.33,0,0,0-.16-.15,2.83,2.83,0,0,0-.52-.07l-.05,0v-.24l.05,0a11.8,11.8,0,0,0,1.26,0l.86,0,1.08,0a2.36,2.36,0,0,1,.8.12,1.17,1.17,0,0,1,.56.4,1.08,1.08,0,0,1,.24.7,1.37,1.37,0,0,1-.36.91,2.21,2.21,0,0,1-1.13.6l1.7,2a2.09,2.09,0,0,0,.36.37.75.75,0,0,0,.34.07l.05,0v.25l-.05,0a5.4,5.4,0,0,0-.66,0,6,6,0,0,0-.72,0Z"/><path d="M23.73,65.18v-.25l0,0a2,2,0,0,0,.54-.08.29.29,0,0,0,.15-.14,1.58,1.58,0,0,0,.08-.54c0-.29,0-.68,0-1.16V62c0-.3,0-.65,0-1a2.17,2.17,0,0,0-.08-.68.38.38,0,0,0-.16-.15,3,3,0,0,0-.53-.07l0,0v-.24l0,0a12.51,12.51,0,0,0,1.26,0,12.11,12.11,0,0,0,1.27,0l.05,0V60l-.05,0a2.81,2.81,0,0,0-.54.08.27.27,0,0,0-.15.15,1.57,1.57,0,0,0-.07.54c0,.28,0,.67,0,1.15v1c0,.64,0,1.24,0,1.81h.7l1,0a2.21,2.21,0,0,0,.62-.08.64.64,0,0,0,.14-.32l.16-.69,0,0h.25l0,0q-.07.71-.12,1.5l-.05,0-2.18,0c-.93,0-1.71,0-2.35,0Z"/><path d="M34.56,63.64l0,0c-.06.47-.1,1-.13,1.5l0,0-2.19,0c-.92,0-1.7,0-2.34,0l0,0v-.25l0,0a2,2,0,0,0,.53-.08.27.27,0,0,0,.16-.14,1.67,1.67,0,0,0,.07-.54c0-.29,0-.68,0-1.16V62c0-.3,0-.65,0-1a2.32,2.32,0,0,0-.07-.68.4.4,0,0,0-.17-.15,2.68,2.68,0,0,0-.52-.07l0,0v-.24l0,0c.5,0,1.29,0,2.34,0s1.65,0,2.11,0l0,0A6.16,6.16,0,0,0,34.26,61v.16l0,0H34l0,0a4.93,4.93,0,0,0-.13-.88c0-.06-.23-.09-.56-.09l-.95,0h-.6c0,.33,0,.67,0,1v1.06h.64l.75,0a.28.28,0,0,0,.16-.12,2.39,2.39,0,0,0,.13-.61l0,0h.26l0,0c0,.36,0,.61,0,.73,0,.56,0,1,0,1.19l0,0h-.26l0,0a2.32,2.32,0,0,0-.1-.61.28.28,0,0,0-.18-.16,5,5,0,0,0-.73-.05h-.66c0,.4,0,.71,0,.91l0,1.34h.7l1,0a2.28,2.28,0,0,0,.62-.08.65.65,0,0,0,.13-.32l.17-.69,0,0Z"/><path d="M39.83,65.18v-.25l0,0a2.16,2.16,0,0,0,.54-.08.29.29,0,0,0,.15-.14,1.42,1.42,0,0,0,.07-.54c0-.29,0-.68,0-1.16V62c0-.3,0-.65,0-1a2,2,0,0,0-.07-.68.45.45,0,0,0-.16-.15,3,3,0,0,0-.53-.07l0,0v-.24l0,0c.53,0,.93,0,1.18,0l2,0a3.78,3.78,0,0,1,.88.09,2.28,2.28,0,0,1,.72.31,2.25,2.25,0,0,1,.59.56,2.17,2.17,0,0,1,.36.71,3.25,3.25,0,0,1,.1.77,3.07,3.07,0,0,1-.27,1.29,3,3,0,0,1-.72,1,2.46,2.46,0,0,1-1,.57,4.77,4.77,0,0,1-1.32.16l-1.31,0-1.2,0Zm1.81-.39a6.19,6.19,0,0,0,.67,0,2.61,2.61,0,0,0,1.23-.25,1.69,1.69,0,0,0,.75-.86,3.55,3.55,0,0,0,.26-1.39A2.42,2.42,0,0,0,44,60.69a1.86,1.86,0,0,0-1.52-.61l-.87,0Z"/><path d="M51.94,63.64l0,0c0,.47-.09,1-.13,1.5l0,0-2.18,0c-.93,0-1.71,0-2.35,0l0,0v-.25l0,0a2,2,0,0,0,.54-.08.29.29,0,0,0,.15-.14,1.58,1.58,0,0,0,.08-.54c0-.29,0-.68,0-1.16V62c0-.3,0-.65,0-1a2.17,2.17,0,0,0-.08-.68.38.38,0,0,0-.16-.15,3,3,0,0,0-.53-.07l0,0v-.24l0,0c.51,0,1.29,0,2.35,0s1.64,0,2.1,0l0,0A6.16,6.16,0,0,0,51.63,61v.16l0,0h-.28l0,0a4.47,4.47,0,0,0-.14-.88c0-.06-.22-.09-.56-.09l-1,0H49c0,.33,0,.67,0,1,0,.59,0,.94,0,1.06h.63l.75,0a.27.27,0,0,0,.17-.12,2.6,2.6,0,0,0,.12-.61l0,0H51l0,0c0,.36,0,.61,0,.73,0,.56,0,1,0,1.19l0,0h-.26l0,0a2.32,2.32,0,0,0-.1-.61.28.28,0,0,0-.19-.16,4.87,4.87,0,0,0-.73-.05H49c0,.4,0,.71,0,.91,0,.45,0,.9,0,1.34h.7l1,0a2.28,2.28,0,0,0,.62-.08.64.64,0,0,0,.14-.32l.16-.69,0,0Zm-.35-6.44-2.46,1.6h-.06L49,58.69v-.06l1.46-1.51,1-.1.06,0Z"/><path d="M56.57,65.25H56l-1.29-3.06c-.45-1-.7-1.63-.77-1.73a.87.87,0,0,0-.24-.26,1.5,1.5,0,0,0-.49-.15l0,0v-.24l0,0c.46,0,.88,0,1.26,0s.84,0,1.25,0l0,0V60l0,0a1.57,1.57,0,0,0-.55.15.23.23,0,0,0-.09.18.65.65,0,0,0,0,.18l.24.61,1.2,2.89h.1l1-2.46c.18-.44.29-.71.33-.83a.84.84,0,0,0,.05-.29.31.31,0,0,0-.11-.25,1.36,1.36,0,0,0-.65-.18l-.05,0v-.24l.05,0c.42,0,.79,0,1.12,0a7.77,7.77,0,0,0,1,0l0,0V60l0,0a1.08,1.08,0,0,0-.37.11,1.06,1.06,0,0,0-.31.3,5.86,5.86,0,0,0-.49.89l-.82,1.84Z"/><path d="M65.38,63.64l0,0c0,.47-.1,1-.13,1.5l0,0-2.19,0c-.92,0-1.7,0-2.34,0l0,0v-.25l0,0a2,2,0,0,0,.53-.08.27.27,0,0,0,.16-.14,1.67,1.67,0,0,0,.07-.54c0-.29,0-.68,0-1.16V62c0-.3,0-.65,0-1a2.32,2.32,0,0,0-.07-.68.45.45,0,0,0-.16-.15,3,3,0,0,0-.53-.07l0,0v-.24l0,0c.5,0,1.29,0,2.34,0s1.65,0,2.11,0l0,0A6.16,6.16,0,0,0,65.08,61v.16l0,0h-.27l0,0a4.93,4.93,0,0,0-.13-.88c0-.06-.23-.09-.56-.09l-1,0h-.6c0,.33,0,.67,0,1v1.06h.64l.75,0a.25.25,0,0,0,.16-.12,2.39,2.39,0,0,0,.13-.61l0,0h.26l0,0c0,.36,0,.61,0,.73,0,.56,0,1,0,1.19l0,0h-.26l0,0a2,2,0,0,0-.1-.61.28.28,0,0,0-.18-.16,4.87,4.87,0,0,0-.73-.05h-.66c0,.4,0,.71,0,.91l0,1.34h.7l1,0a2.28,2.28,0,0,0,.62-.08.65.65,0,0,0,.13-.32l.17-.69,0,0Z"/><path d="M67.07,65.18v-.25l.05,0a2,2,0,0,0,.53-.08.29.29,0,0,0,.15-.14,1.36,1.36,0,0,0,.08-.54c0-.29,0-.68,0-1.16V62c0-.3,0-.65,0-1a2.17,2.17,0,0,0-.08-.68.38.38,0,0,0-.16-.15,2.83,2.83,0,0,0-.52-.07l-.05,0v-.24l.05,0a12.27,12.27,0,0,0,1.26,0,12,12,0,0,0,1.26,0l0,0V60l0,0a2.81,2.81,0,0,0-.54.08.27.27,0,0,0-.15.15,1.88,1.88,0,0,0-.07.54c0,.28,0,.67,0,1.15v1c0,.64,0,1.24,0,1.81h.69l1,0a2.21,2.21,0,0,0,.62-.08.64.64,0,0,0,.14-.32l.16-.69,0,0h.25l0,0q-.07.71-.12,1.5l0,0-2.18,0c-.93,0-1.71,0-2.34,0Z"/><path d="M79.26,62.23A3.54,3.54,0,0,1,79,63.56a2.84,2.84,0,0,1-.69,1,2.59,2.59,0,0,1-.92.6,3.23,3.23,0,0,1-1.13.18,2.81,2.81,0,0,1-2.19-.83,3,3,0,0,1-.75-2.06,3.16,3.16,0,0,1,.36-1.52,2.44,2.44,0,0,1,1.05-1,3.58,3.58,0,0,1,1.62-.35,3.21,3.21,0,0,1,1.54.34,2.45,2.45,0,0,1,1,.95A2.6,2.6,0,0,1,79.26,62.23Zm-1.13.34a3.32,3.32,0,0,0-.48-1.88A1.6,1.6,0,0,0,76.24,60a1.67,1.67,0,0,0-1.28.55,2.47,2.47,0,0,0-.49,1.66,3.76,3.76,0,0,0,.5,2,1.56,1.56,0,0,0,1.42.82,1.49,1.49,0,0,0,1.28-.65A3,3,0,0,0,78.13,62.57Z"/><path d="M82.65,60.22V63c0,.32,0,.66,0,1a2.09,2.09,0,0,0,.08.67.29.29,0,0,0,.16.15,3,3,0,0,0,.53.07l0,0v.25l0,0c-.39,0-.81,0-1.27,0s-.89,0-1.26,0l-.05,0v-.25l.05,0a2,2,0,0,0,.53-.08.27.27,0,0,0,.16-.14,1.42,1.42,0,0,0,.07-.54c0-.29,0-.68,0-1.16V62c0-.3,0-.65,0-1a2,2,0,0,0-.07-.68.45.45,0,0,0-.16-.15,3,3,0,0,0-.53-.07l-.05,0v-.24l.05,0a12.51,12.51,0,0,0,1.26,0l.66,0h1a3.07,3.07,0,0,1,1.11.15,1.17,1.17,0,0,1,.55.48,1.32,1.32,0,0,1,.19.68,1.49,1.49,0,0,1-.29.87,1.68,1.68,0,0,1-.78.58,2.47,2.47,0,0,1-.94.19,2.89,2.89,0,0,1-.53,0l0-.23,0,0a2.83,2.83,0,0,0,.87-.11.82.82,0,0,0,.47-.37,1.25,1.25,0,0,0,.16-.65,1.06,1.06,0,0,0-.31-.83,1.25,1.25,0,0,0-.89-.28A3.21,3.21,0,0,0,82.65,60.22Z"/><path d="M88.91,60.22V63c0,.32,0,.66,0,1a1.92,1.92,0,0,0,.07.67.29.29,0,0,0,.16.15,3,3,0,0,0,.53.07l0,0v.25l0,0c-.39,0-.81,0-1.27,0s-.89,0-1.26,0l0,0v-.25l0,0a2,2,0,0,0,.53-.08.27.27,0,0,0,.16-.14,1.42,1.42,0,0,0,.07-.54c0-.29,0-.68,0-1.16V62c0-.3,0-.65,0-1a2,2,0,0,0-.07-.68.45.45,0,0,0-.16-.15,3,3,0,0,0-.53-.07l0,0v-.24l0,0a12.51,12.51,0,0,0,1.26,0l.66,0h1a3.07,3.07,0,0,1,1.11.15,1.17,1.17,0,0,1,.55.48A1.32,1.32,0,0,1,92,61a1.49,1.49,0,0,1-.29.87,1.68,1.68,0,0,1-.78.58,2.47,2.47,0,0,1-.94.19,2.89,2.89,0,0,1-.53,0l-.05-.23,0,0a2.83,2.83,0,0,0,.87-.11.82.82,0,0,0,.47-.37,1.25,1.25,0,0,0,.16-.65,1.06,1.06,0,0,0-.31-.83,1.25,1.25,0,0,0-.89-.28A3.21,3.21,0,0,0,88.91,60.22Z"/><path d="M98,63.64l0,0c0,.47-.1,1-.13,1.5l0,0-2.19,0c-.92,0-1.7,0-2.34,0l0,0v-.25l0,0a2,2,0,0,0,.53-.08.27.27,0,0,0,.16-.14,1.42,1.42,0,0,0,.07-.54c0-.29,0-.68,0-1.16V62c0-.3,0-.65,0-1a2,2,0,0,0-.07-.68.45.45,0,0,0-.16-.15,3,3,0,0,0-.53-.07l0,0v-.24l0,0c.51,0,1.29,0,2.34,0s1.65,0,2.11,0l0,0A6.16,6.16,0,0,0,97.64,61v.16l0,0h-.28l0,0a4.93,4.93,0,0,0-.13-.88c0-.06-.23-.09-.56-.09l-.95,0h-.6c0,.33,0,.67,0,1v1.06h.64l.75,0a.25.25,0,0,0,.16-.12,2.39,2.39,0,0,0,.13-.61l0,0H97l0,0c0,.36,0,.61,0,.73,0,.56,0,1,0,1.19l0,0h-.26l0,0a2,2,0,0,0-.1-.61.28.28,0,0,0-.18-.16,4.87,4.87,0,0,0-.73-.05H95c0,.4,0,.71,0,.91l0,1.34h.7l1,0a2.28,2.28,0,0,0,.62-.08.65.65,0,0,0,.13-.32l.17-.69,0,0Z"/><path d="M105.47,59.71c.32,0,.6,0,.84,0s.6,0,.91,0l0,0V60l0,0a2.52,2.52,0,0,0-.53.08.26.26,0,0,0-.16.15,1.8,1.8,0,0,0-.07.57c0,.31,0,.68,0,1.12v1c0,.29,0,.62,0,1a2.41,2.41,0,0,0,.07.69.35.35,0,0,0,.16.14,2,2,0,0,0,.53.08l0,0v.25l0,0c-.38,0-.81,0-1.26,0s-.9,0-1.26,0l0,0v-.25l0,0a2,2,0,0,0,.53-.08.26.26,0,0,0,.16-.15,1.7,1.7,0,0,0,.07-.57c0-.3,0-.67,0-1.12V60.73h-.07l-2.16,4.45h-.19L101,60.73h-.07l.06,3.05v.42a1.46,1.46,0,0,0,0,.47.28.28,0,0,0,.17.15,2.6,2.6,0,0,0,.55.07l0,0v.25l0,0c-.35,0-.7,0-1,0s-.62,0-1,0l0,0v-.25l0,0a2.74,2.74,0,0,0,.62-.08.26.26,0,0,0,.16-.18,5.46,5.46,0,0,0,0-.85l0-2.62a6.16,6.16,0,0,0,0-.82.27.27,0,0,0-.15-.19,2.42,2.42,0,0,0-.66-.1l0,0v-.24l0,0c.4,0,.72,0,1,0s.54,0,.9,0l1.86,4.07h.09Z"/><path d="M113.61,63.64l0,0c-.06.47-.1,1-.13,1.5l0,0-2.19,0c-.92,0-1.71,0-2.34,0l0,0v-.25l0,0a2,2,0,0,0,.53-.08.31.31,0,0,0,.16-.14,1.67,1.67,0,0,0,.07-.54c0-.29,0-.68,0-1.16V62c0-.3,0-.65,0-1a1.89,1.89,0,0,0-.08-.68.33.33,0,0,0-.16-.15,2.83,2.83,0,0,0-.52-.07l0,0v-.24l0,0c.5,0,1.28,0,2.34,0s1.64,0,2.11,0l0,0a7,7,0,0,0-.11,1.19v.16l0,0H113l0,0a3.75,3.75,0,0,0-.14-.88c0-.06-.22-.09-.56-.09l-.94,0h-.6q0,.49,0,1c0,.59,0,.94,0,1.06h.63l.76,0a.28.28,0,0,0,.16-.12,2.39,2.39,0,0,0,.13-.61l0,0h.25l0,0c0,.36,0,.61,0,.73,0,.56,0,1,0,1.19l0,0h-.25l0,0a2.32,2.32,0,0,0-.1-.61.28.28,0,0,0-.18-.16,5,5,0,0,0-.73-.05h-.66c0,.4,0,.71,0,.91l0,1.34h.69l1,0a2.28,2.28,0,0,0,.62-.08.65.65,0,0,0,.13-.32l.17-.69,0,0Z"/><path d="M115.21,60v-.24l0,0a7.39,7.39,0,0,0,.84,0,8,8,0,0,0,.82,0c.18.26.69.9,1.54,1.92s1.56,1.85,2.17,2.5l0-3a6.7,6.7,0,0,0,0-.83.32.32,0,0,0-.1-.18,2.11,2.11,0,0,0-.63-.1l0,0v-.24l0,0a8.42,8.42,0,0,0,1,0,8.84,8.84,0,0,0,1,0l0,0V60l0,0a2.71,2.71,0,0,0-.61.08.29.29,0,0,0-.17.17,5.75,5.75,0,0,0,0,.86l0,2.61c0,.59,0,1.09,0,1.52l-.07.07-.78-.17q-1.86-2.32-3.69-4.29l0,2.88a5.92,5.92,0,0,0,0,.83.32.32,0,0,0,.12.18,1.78,1.78,0,0,0,.62.1l0,0v.25l0,0c-.35,0-.69,0-1,0s-.69,0-1,0l0,0v-.25l0,0a2.76,2.76,0,0,0,.57-.07.28.28,0,0,0,.19-.14,1.32,1.32,0,0,0,0-.44s0-.2,0-.46l0-2.5v-.8a.84.84,0,0,0-.32-.31,1.33,1.33,0,0,0-.53-.12Z"/><path d="M123.18,59.76l0,0c.76,0,1.61.06,2.56.06s1.81,0,2.56-.06l0,0c0,.51,0,1,0,1.3l0,0h-.24l0,0a3.58,3.58,0,0,0-.13-.75.23.23,0,0,0-.13-.14.79.79,0,0,0-.33,0h-1.19l0,1.5V63c0,.29,0,.62,0,1a2.41,2.41,0,0,0,.07.69.27.27,0,0,0,.16.14,2,2,0,0,0,.53.08l0,0v.25l0,0c-.39,0-.8,0-1.23,0s-.87,0-1.24,0l0,0v-.25l0,0a2.16,2.16,0,0,0,.54-.08.27.27,0,0,0,.15-.15,1.7,1.7,0,0,0,.07-.57c0-.3,0-.67,0-1.12V61.65l0-1.52H124.1a.82.82,0,0,0-.33,0,.24.24,0,0,0-.13.16,5.39,5.39,0,0,0-.12.73l0,0h-.22l-.05,0C123.21,60.91,123.2,60.47,123.18,59.76Z"/><path d="M133.39,65.18v-.25l.05,0a2,2,0,0,0,.53-.08.35.35,0,0,0,.16-.14,1.67,1.67,0,0,0,.07-.54c0-.29,0-.68,0-1.16V62c0-.3,0-.65,0-1a1.89,1.89,0,0,0-.08-.68.33.33,0,0,0-.16-.15,2.83,2.83,0,0,0-.52-.07l-.05,0v-.24l.05,0a12.51,12.51,0,0,0,1.26,0,12,12,0,0,0,1.26,0l0,0V60l0,0a2.52,2.52,0,0,0-.53.08.26.26,0,0,0-.16.15,1.88,1.88,0,0,0-.07.54c0,.28,0,.67,0,1.15v1c0,.32,0,.66,0,1a2.23,2.23,0,0,0,.07.67.35.35,0,0,0,.17.15,2.83,2.83,0,0,0,.52.07l0,0v.25l0,0c-.38,0-.8,0-1.26,0s-.89,0-1.26,0Z"/><path d="M137.59,60v-.24l0,0a7.1,7.1,0,0,0,.83,0,8,8,0,0,0,.82,0c.18.26.69.9,1.54,1.92s1.57,1.85,2.17,2.5l0-3a6.7,6.7,0,0,0,0-.83.32.32,0,0,0-.1-.18,2,2,0,0,0-.63-.1l-.05,0v-.24l.05,0a8.42,8.42,0,0,0,1,0,8.73,8.73,0,0,0,1,0l0,0V60l0,0a2.71,2.71,0,0,0-.61.08.25.25,0,0,0-.16.17,4.18,4.18,0,0,0,0,.86l0,2.61c0,.59,0,1.09,0,1.52l-.07.07-.78-.17q-1.86-2.32-3.69-4.29l0,2.88a5.92,5.92,0,0,0,0,.83.32.32,0,0,0,.12.18,1.78,1.78,0,0,0,.62.1l.05,0v.25l-.05,0c-.35,0-.68,0-1,0s-.69,0-1,0l0,0v-.25l0,0a2.74,2.74,0,0,0,.56-.07.28.28,0,0,0,.19-.14,1.1,1.1,0,0,0,.05-.44s0-.2,0-.46l0-2.5c0-.44,0-.71,0-.8a.84.84,0,0,0-.32-.31,1.32,1.32,0,0,0-.52-.12Z"/><path d="M145.56,59.76l.05,0c.76,0,1.61.06,2.56.06s1.81,0,2.56-.06l0,0c0,.51,0,1,0,1.3l0,0h-.24l0,0a5,5,0,0,0-.12-.75.27.27,0,0,0-.14-.14.79.79,0,0,0-.33,0h-1.19l0,1.5V63c0,.29,0,.62,0,1a2.41,2.41,0,0,0,.07.69.27.27,0,0,0,.16.14,2,2,0,0,0,.53.08l0,0v.25l0,0c-.39,0-.8,0-1.23,0s-.87,0-1.24,0l-.05,0v-.25l.05,0a2.16,2.16,0,0,0,.54-.08.27.27,0,0,0,.15-.15,1.7,1.7,0,0,0,.07-.57c0-.3,0-.67,0-1.12V61.65l0-1.52h-1.18a.84.84,0,0,0-.34,0,.24.24,0,0,0-.13.16,5.39,5.39,0,0,0-.12.73l0,0h-.22l0,0C145.59,60.91,145.58,60.47,145.56,59.76Z"/><path d="M156.66,63.64l0,0q-.08.71-.12,1.5l0,0-2.18,0c-.93,0-1.71,0-2.34,0l-.05,0v-.25l.05,0a2,2,0,0,0,.53-.08.29.29,0,0,0,.15-.14,1.36,1.36,0,0,0,.08-.54c0-.29,0-.68,0-1.16V62c0-.3,0-.65,0-1a2.17,2.17,0,0,0-.08-.68.38.38,0,0,0-.16-.15,2.83,2.83,0,0,0-.52-.07L152,60v-.24l.05,0c.5,0,1.28,0,2.34,0s1.64,0,2.1,0l0,0a6.16,6.16,0,0,0-.12,1.19v.16l0,0H156l0,0a4.47,4.47,0,0,0-.14-.88c0-.06-.22-.09-.56-.09l-.95,0h-.6c0,.33,0,.67,0,1,0,.59,0,.94,0,1.06h.63l.76,0a.28.28,0,0,0,.16-.12,2.6,2.6,0,0,0,.12-.61l0,0h.25l0,0c0,.36,0,.61,0,.73,0,.56,0,1,0,1.19l0,0h-.26l0,0a2.32,2.32,0,0,0-.1-.61.28.28,0,0,0-.18-.16,5.22,5.22,0,0,0-.74-.05h-.65c0,.4,0,.71,0,.91,0,.45,0,.9,0,1.34h.7l1,0a2.21,2.21,0,0,0,.62-.08.64.64,0,0,0,.14-.32l.16-.69,0,0Z"/><path d="M160.31,62.39l.08-.12h.17a1.7,1.7,0,0,0,1.18-.31,1.09,1.09,0,0,0,.32-.81,1,1,0,0,0-.28-.76,1.22,1.22,0,0,0-.86-.28,4.07,4.07,0,0,0-.82.1V63c0,.32,0,.66,0,1a2.09,2.09,0,0,0,.08.67.29.29,0,0,0,.16.15,2.83,2.83,0,0,0,.52.07l0,0v.25l0,0c-.38,0-.8,0-1.26,0s-.89,0-1.26,0l0,0v-.25l0,0a2,2,0,0,0,.53-.08.27.27,0,0,0,.16-.14,1.67,1.67,0,0,0,.07-.54c0-.29,0-.68,0-1.16V62c0-.3,0-.65,0-1a2.32,2.32,0,0,0-.07-.68.4.4,0,0,0-.17-.15,2.83,2.83,0,0,0-.52-.07l0,0v-.24l0,0a12,12,0,0,0,1.26,0l.87,0,1.07,0a2.32,2.32,0,0,1,.8.12,1.19,1.19,0,0,1,.57.4,1.13,1.13,0,0,1,.23.7,1.37,1.37,0,0,1-.36.91,2.16,2.16,0,0,1-1.13.6l1.7,2a2,2,0,0,0,.37.37.68.68,0,0,0,.33.07l.05,0v.25l-.05,0a5.25,5.25,0,0,0-.65,0,6.06,6.06,0,0,0-.73,0Z"/><path d="M165.14,60v-.24l.05,0a7.33,7.33,0,0,0,.83,0,8.2,8.2,0,0,0,.83,0q.26.39,1.53,1.92c.85,1,1.57,1.85,2.17,2.5l0-3a6.7,6.7,0,0,0,0-.83.42.42,0,0,0-.11-.18,2,2,0,0,0-.63-.1l0,0v-.24l0,0a8.69,8.69,0,0,0,1,0,8.94,8.94,0,0,0,1,0l0,0V60l0,0a2.85,2.85,0,0,0-.62.08.27.27,0,0,0-.16.17,4.56,4.56,0,0,0,0,.86l0,2.61c0,.59,0,1.09,0,1.52l-.07.07-.77-.17q-1.87-2.32-3.69-4.29v2.88a7,7,0,0,0,0,.83.27.27,0,0,0,.11.18,1.81,1.81,0,0,0,.63.1l0,0v.25l0,0c-.36,0-.69,0-1,0s-.69,0-1,0l-.05,0v-.25l.05,0a3,3,0,0,0,.57-.07.26.26,0,0,0,.18-.14,1,1,0,0,0,.06-.44v-.46l0-2.5c0-.44,0-.71,0-.8a.82.82,0,0,0-.31-.31,1.38,1.38,0,0,0-.53-.12Z"/><path d="M176.09,59.61h.39l1.78,4.11a3.39,3.39,0,0,0,.52.91,1,1,0,0,0,.62.26l0,0v.25l0,0c-.59,0-1,0-1.34,0l-1.35,0,0,0v-.25l0,0a2,2,0,0,0,.69-.13.19.19,0,0,0,.09-.16,1.84,1.84,0,0,0-.13-.46,6.44,6.44,0,0,0-.32-.7H174.8c-.17.39-.28.65-.33.79a.93.93,0,0,0-.07.31.27.27,0,0,0,.18.24,1.57,1.57,0,0,0,.61.11l.05,0v.25l0,0c-.4,0-.76,0-1.06,0s-.68,0-1.07,0l0,0v-.25l0,0a.85.85,0,0,0,.46-.1,1.41,1.41,0,0,0,.38-.45,7.05,7.05,0,0,0,.4-.78Zm.82,3.49-1-2.22-1,2.22h2Z"/><path d="M180.52,59.76l0,0c.76,0,1.61.06,2.56.06s1.81,0,2.56-.06l0,0c0,.51,0,1,0,1.3l0,0h-.23l0,0a5,5,0,0,0-.12-.75.26.26,0,0,0-.13-.14.85.85,0,0,0-.33,0h-1.19l0,1.5V63c0,.29,0,.62,0,1a2.88,2.88,0,0,0,.07.69.31.31,0,0,0,.16.14,2.16,2.16,0,0,0,.54.08l0,0v.25l0,0c-.39,0-.81,0-1.24,0s-.87,0-1.24,0l0,0v-.25l0,0a2,2,0,0,0,.54-.08.25.25,0,0,0,.15-.15,1.6,1.6,0,0,0,.08-.57c0-.3,0-.67,0-1.12V61.65l0-1.52h-1.19a.88.88,0,0,0-.34,0,.24.24,0,0,0-.13.16,5.39,5.39,0,0,0-.12.73l0,0h-.23l0,0C180.56,60.91,180.55,60.47,180.52,59.76Z"/><path d="M187.13,65.18v-.25l.05,0a2,2,0,0,0,.53-.08.27.27,0,0,0,.16-.14,1.67,1.67,0,0,0,.07-.54c0-.29,0-.68,0-1.16V62c0-.3,0-.65,0-1a2.32,2.32,0,0,0-.07-.68.45.45,0,0,0-.16-.15,3,3,0,0,0-.53-.07l-.05,0v-.24l.05,0a12.51,12.51,0,0,0,1.26,0,12.35,12.35,0,0,0,1.27,0l0,0V60l0,0a2.67,2.67,0,0,0-.54.08.27.27,0,0,0-.15.15,1.57,1.57,0,0,0-.07.54c0,.28,0,.67,0,1.15v1c0,.32,0,.66,0,1a2.09,2.09,0,0,0,.08.67.29.29,0,0,0,.16.15,3,3,0,0,0,.53.07l0,0v.25l0,0c-.39,0-.81,0-1.27,0s-.89,0-1.26,0Z"/><path d="M197.36,62.23a3.54,3.54,0,0,1-.24,1.33,2.84,2.84,0,0,1-.69,1,2.51,2.51,0,0,1-.92.6,3.23,3.23,0,0,1-1.13.18,2.81,2.81,0,0,1-2.19-.83,3,3,0,0,1-.75-2.06,3.16,3.16,0,0,1,.36-1.52,2.44,2.44,0,0,1,1-1,3.58,3.58,0,0,1,1.62-.35,3.21,3.21,0,0,1,1.54.34,2.45,2.45,0,0,1,1,.95A2.61,2.61,0,0,1,197.36,62.23Zm-1.14.34a3.32,3.32,0,0,0-.48-1.88,1.6,1.6,0,0,0-1.41-.71,1.67,1.67,0,0,0-1.28.55,2.47,2.47,0,0,0-.49,1.66,3.76,3.76,0,0,0,.5,2,1.56,1.56,0,0,0,1.42.82,1.49,1.49,0,0,0,1.28-.65A3,3,0,0,0,196.22,62.57Z"/><path d="M198.85,60v-.24l.05,0a7.21,7.21,0,0,0,.83,0,8.2,8.2,0,0,0,.83,0q.25.39,1.53,1.92c.84,1,1.57,1.85,2.17,2.5l0-3c0-.48,0-.76,0-.83a.42.42,0,0,0-.11-.18,2,2,0,0,0-.63-.1l0,0v-.24l0,0a8.69,8.69,0,0,0,1,0,8.94,8.94,0,0,0,1,0l0,0V60l0,0a2.85,2.85,0,0,0-.62.08.27.27,0,0,0-.16.17,4.18,4.18,0,0,0-.05.86v2.61c0,.59,0,1.09,0,1.52l-.07.07-.77-.17q-1.87-2.32-3.69-4.29v2.88c0,.47,0,.75,0,.83a.32.32,0,0,0,.12.18,1.81,1.81,0,0,0,.63.1l0,0v.25l0,0c-.36,0-.69,0-1,0s-.69,0-1,0l-.05,0v-.25l.05,0a3,3,0,0,0,.57-.07.28.28,0,0,0,.18-.14,1,1,0,0,0,.06-.44v-.46l0-2.5c0-.44,0-.71,0-.8a.82.82,0,0,0-.31-.31,1.38,1.38,0,0,0-.53-.12Z"/><path d="M209.8,59.61h.39L212,63.72a3.39,3.39,0,0,0,.52.91,1,1,0,0,0,.61.26l.05,0v.25l-.05,0c-.58,0-1,0-1.33,0l-1.35,0,0,0v-.25l0,0a2,2,0,0,0,.69-.13.19.19,0,0,0,.09-.16,1.62,1.62,0,0,0-.14-.46,4.94,4.94,0,0,0-.31-.7h-2.25c-.17.39-.28.65-.33.79a.93.93,0,0,0-.07.31.27.27,0,0,0,.18.24,1.53,1.53,0,0,0,.61.11l0,0v.25l0,0c-.4,0-.76,0-1.06,0s-.68,0-1.07,0l0,0v-.25l0,0a.85.85,0,0,0,.46-.1,1.41,1.41,0,0,0,.38-.45,7.05,7.05,0,0,0,.4-.78Zm.82,3.49-1-2.22-1,2.22h2Z"/><path d="M214.5,65.18v-.25l0,0a2.16,2.16,0,0,0,.54-.08.29.29,0,0,0,.15-.14,1.42,1.42,0,0,0,.07-.54c0-.29,0-.68,0-1.16V62c0-.3,0-.65,0-1a2,2,0,0,0-.07-.68.45.45,0,0,0-.16-.15,3,3,0,0,0-.53-.07l0,0v-.24l0,0a12.51,12.51,0,0,0,1.26,0,12.23,12.23,0,0,0,1.27,0l0,0V60l0,0a2.67,2.67,0,0,0-.54.08.27.27,0,0,0-.15.15,1.57,1.57,0,0,0-.07.54c0,.28,0,.67,0,1.15v1c0,.64,0,1.24,0,1.81h.7l1,0a2.28,2.28,0,0,0,.62-.08.57.57,0,0,0,.13-.32l.17-.69,0,0h.25l0,0c-.05.47-.1,1-.13,1.5l0,0-2.18,0c-.93,0-1.71,0-2.35,0Z"/></g></svg>
